<?xml version="1.0" encoding="UTF-8" standalone="no"?>
<!-- Generator: Adobe Illustrator 18.1.1, SVG Export Plug-In . SVG Version: 6.00 Build 0)  -->

<svg
   xmlns:dc="http://purl.org/dc/elements/1.1/"
   xmlns:cc="http://creativecommons.org/ns#"
   xmlns:rdf="http://www.w3.org/1999/02/22-rdf-syntax-ns#"
   xmlns:svg="http://www.w3.org/2000/svg"
   xmlns="http://www.w3.org/2000/svg"
   xmlns:sodipodi="http://sodipodi.sourceforge.net/DTD/sodipodi-0.dtd"
   xmlns:inkscape="http://www.inkscape.org/namespaces/inkscape"
   version="1.1"
   x="0px"
   y="0px"
   viewBox="0 0 1400 500"
   enable-background="new 0 0 1200 900"
   xml:space="preserve"
   id="svg2"
   inkscape:version="0.91 r13725"
   sodipodi:docname="git_clone.svg"
   width="1400"
   height="500"><metadata
     id="metadata232"><rdf:RDF><cc:Work
         rdf:about=""><dc:format>image/svg+xml</dc:format><dc:type
           rdf:resource="http://purl.org/dc/dcmitype/StillImage" /><dc:title></dc:title></cc:Work></rdf:RDF></metadata><defs
     id="defs230" /><sodipodi:namedview
     pagecolor="#ffffff"
     bordercolor="#666666"
     borderopacity="1"
     objecttolerance="10"
     gridtolerance="10"
     guidetolerance="10"
     inkscape:pageopacity="0"
     inkscape:pageshadow="2"
     inkscape:window-width="2880"
     inkscape:window-height="1577"
     id="namedview228"
     showgrid="false"
     inkscape:zoom="0.26222222"
     inkscape:cx="-80.720339"
     inkscape:cy="450"
     inkscape:window-x="0"
     inkscape:window-y="0"
     inkscape:window-maximized="1"
     inkscape:current-layer="svg2" /><g
     id="g5734"
     transform="matrix(1.4956492,0,0,1.2873068,-806.65209,-474.98072)"><g
       id="g5270"><rect
         id="rect5272"
         height="61.834999"
         width="113.893"
         y="426.474"
         x="853.09003"
         style="fill:#cfa4a4" /><rect
         id="rect5274"
         height="61.834999"
         width="113.893"
         y="426.474"
         x="853.09003"
         style="fill:none;fill-opacity:0;stroke:#000000;stroke-width:2" /></g><text
       id="text5276"
       y="467.064"
       x="874.45801"
       style="font-style:normal;font-weight:normal;font-size:22.57780075px;font-family:sans-serif;text-anchor:start;fill:#ffffff"
       font-size="22.5778"><tspan
         id="tspan5278"
         y="467.064"
         x="874.45801">Github</tspan></text>
<g
       id="g5280"><path
         id="path5282"
         d="m 995.738,443.155 0,81.33 50.682,0 0,-81.33 -50.682,0 z"
         style="fill:#b7b79d"
         inkscape:connector-curvature="0" /><path
         id="path5284"
         d="m 996.015,443.464 0,81.33 50.685,0 0,-81.33 -50.685,0 z"
         style="fill:#b7b79d"
         inkscape:connector-curvature="0" /><path
         id="path5286"
         d="m 996.015,443.464 0,81.33 50.685,0 0,-81.33 -50.685,0"
         style="fill:none;fill-opacity:0;stroke:#494936;stroke-width:0.02"
         inkscape:connector-curvature="0" /><path
         id="path5288"
         d="m 999.104,465.099 20.066,0 0,7.105 -20.066,0 0,-7.105 z"
         style="fill:#000000"
         inkscape:connector-curvature="0" /><path
         id="path5290"
         d="m 999.104,465.099 20.056,0 0,7.094 -20.056,0 0,-7.094"
         style="fill:none;fill-opacity:0;stroke:#ecece7;stroke-width:0.02"
         inkscape:connector-curvature="0" /><path
         id="path5292"
         d="m 999.402,471.906 0,-6.52 19.458,0"
         style="fill:none;fill-opacity:0;stroke:#494936;stroke-width:0.02"
         inkscape:connector-curvature="0" /><path
         id="path5294"
         d="m 995.738,443.155 18.262,-18.343 50.7,0 -18.28,18.343 -50.682,0 z"
         style="fill:#c9c9b6"
         inkscape:connector-curvature="0" /><path
         id="path5296"
         d="m 996.015,443.464 18.285,-18.375 50.69,0 -18.29,18.375 -50.685,0 z"
         style="fill:#c9c9b6"
         inkscape:connector-curvature="0" /><path
         id="path5298"
         d="m 996.015,443.464 18.285,-18.375 50.69,0 -18.29,18.375 -50.685,0"
         style="fill:none;fill-opacity:0;stroke:#494936;stroke-width:0.02"
         inkscape:connector-curvature="0" /><path
         id="path5300"
         d="m 1046.42,524.485 18.28,-18.375 0,-81.298 -18.28,18.343 0,81.33 z"
         style="fill:#7a7a5a"
         inkscape:connector-curvature="0" /><path
         id="path5302"
         d="m 1046.7,524.794 18.29,-18.375 0,-81.33 -18.29,18.375 0,81.33 z"
         style="fill:#7a7a5a"
         inkscape:connector-curvature="0" /><path
         id="path5304"
         d="m 1046.7,524.794 18.29,-18.375 0,-81.33 -18.29,18.375 0,81.33"
         style="fill:none;fill-opacity:0;stroke:#494936;stroke-width:0.02"
         inkscape:connector-curvature="0" /><path
         id="path5306"
         d="m 1046.42,452.348 -50.096,0"
         style="fill:none;fill-opacity:0;stroke:#ecece7;stroke-width:2.24000001"
         inkscape:connector-curvature="0" /><path
         id="path5308"
         d="m 1046.42,451.752 -50.096,0"
         style="fill:none;fill-opacity:0;stroke:#494936;stroke-width:2.24000001"
         inkscape:connector-curvature="0" /><path
         id="path5310"
         d="m 1045.23,452.955 0.01,-0.01"
         style="fill:none;fill-opacity:0;stroke:#ecece7;stroke-width:3.05999994"
         inkscape:connector-curvature="0" /><path
         id="path5312"
         d="m 1045.23,452.348 0.01,-0.011"
         style="fill:none;fill-opacity:0;stroke:#494936;stroke-width:3.05999994"
         inkscape:connector-curvature="0" /><path
         id="path5314"
         d="m 1022.7,465.099 20.05,0 0,7.105 -20.05,0 0,-7.105 z"
         style="fill:#000000"
         inkscape:connector-curvature="0" /><path
         id="path5316"
         d="m 1022.7,465.099 20.04,0 0,7.094 -20.04,0 0,-7.094"
         style="fill:none;fill-opacity:0;stroke:#ecece7;stroke-width:0.02"
         inkscape:connector-curvature="0" /><path
         id="path5318"
         d="m 1022.98,471.906 0,-6.52 19.46,0"
         style="fill:none;fill-opacity:0;stroke:#494936;stroke-width:0.02"
         inkscape:connector-curvature="0" /></g><text
       id="text5320"
       y="397.79999"
       x="781.79999"
       style="font-style:normal;font-weight:normal;font-size:12.80000019px;font-family:sans-serif;text-anchor:start;fill:#000000"
       font-size="12.8"><tspan
         id="tspan5322"
         y="397.79999"
         x="781.79999" /></text>
<text
       id="text5324"
       y="410.05399"
       x="807.414"
       style="font-style:normal;font-weight:normal;font-size:12.80000019px;font-family:sans-serif;text-anchor:start;fill:#000000"
       font-size="12.8"><tspan
         id="tspan5326"
         y="410.05399"
         x="807.414">https://github.com/&lt;ID#1&gt;/git-lecture</tspan></text>
<text
       id="text5328"
       y="400.866"
       x="1110.83"
       style="font-style:normal;font-weight:normal;font-size:12.80000019px;font-family:sans-serif;text-anchor:start;fill:#000000"
       font-size="12.8"><tspan
         id="tspan5330"
         y="400.866"
         x="1110.83" /></text>
<g
       id="g5332"><path
         id="path5334"
         d="m 700.9,694.127 55.354,0 -23.274,23.354 -55.354,0 23.274,-23.354 z"
         style="fill:#c9c9b6"
         inkscape:connector-curvature="0" /><path
         id="path5336"
         d="m 700.9,694.127 55.354,0 -23.274,23.354 -55.354,0 23.274,-23.354"
         style="fill:none;fill-opacity:0;stroke:#494936;stroke-width:0.02"
         inkscape:connector-curvature="0" /><path
         id="path5338"
         d="m 703.025,713.536 0,0.124 0.023,0.102 0.034,0.135 0.045,0.136 0.068,0.102 0.079,0.124 0.102,0.113 0.101,0.102 0.102,0.124 0.136,0.125 0.135,0.101 0.147,0.091 0.17,0.09 0.158,0.102 0.204,0.079 0.181,0.102 0.203,0.079 0.226,0.079 0.226,0.068 0.215,0.068 0.237,0.067 0.238,0.068 0.248,0.034 0.272,0.045 0.26,0.023 0.271,0.045 0.249,0.034 0.282,0.034 0.283,0.011 0.271,0.012 0.271,0"
         style="fill:none;fill-opacity:0;stroke:#dbdbce;stroke-width:0.02"
         inkscape:connector-curvature="0" /><path
         id="path5340"
         d="m 707.863,715.955 0.272,0 0.26,-0.012 0.26,-0.022 0.271,-0.034 0.271,-0.023 0.249,-0.045 0.248,-0.023 0.26,-0.056 0.238,-0.057 0.248,-0.067 0.215,-0.068 0.226,-0.068 0.215,-0.079 0.204,-0.079 0.18,-0.079 0.193,-0.091 0.18,-0.102 0.159,-0.09 0.158,-0.113 0.136,-0.113 0.124,-0.113 0.102,-0.102 0.113,-0.124 0.09,-0.125 0.068,-0.101 0.079,-0.125 0.034,-0.147 0.034,-0.124 0.034,-0.113 0.011,-0.124"
         style="fill:none;fill-opacity:0;stroke:#dbdbce;stroke-width:0.02"
         inkscape:connector-curvature="0" /><path
         id="path5342"
         d="m 709.061,709.003 -0.282,0 -0.271,0.011 -0.283,0 -0.249,0.023 -0.271,0.034 -0.271,0.022 -0.26,0.023 -0.272,0.056 -0.237,0.046 -0.237,0.034 -0.238,0.056 -0.237,0.068 -0.215,0.056 -0.203,0.068 -0.204,0.091 -0.226,0.068 -0.158,0.079 -0.181,0.067 -0.169,0.091 -0.136,0.102 -0.147,0.09 -0.124,0.079 -0.125,0.102 -0.09,0.102 -0.091,0.113 -0.09,0.101 -0.045,0.091 -0.057,0.113 -0.034,0.09 -0.011,0.125 -0.011,0.09"
         style="fill:none;fill-opacity:0;stroke:#dbdbce;stroke-width:0.02"
         inkscape:connector-curvature="0" /><path
         id="path5344"
         d="m 713.583,711.094 0,-0.102 -0.011,-0.113 -0.046,-0.101 -0.045,-0.125 -0.056,-0.09 -0.091,-0.125 -0.09,-0.09 -0.091,-0.113 -0.135,-0.079 -0.102,-0.113 -0.136,-0.091 -0.181,-0.079 -0.146,-0.113 -0.17,-0.056 -0.181,-0.091 -0.203,-0.09 -0.215,-0.068 -0.215,-0.068 -0.215,-0.056 -0.226,-0.046 -0.237,-0.056 -0.249,-0.057 -0.237,-0.033 -0.249,-0.046 -0.249,-0.022 -0.259,-0.034 -0.272,-0.023 -0.282,0 -0.272,-0.011 -0.26,0"
         style="fill:none;fill-opacity:0;stroke:#dbdbce;stroke-width:0.02"
         inkscape:connector-curvature="0" /><path
         id="path5346"
         d="m 677.626,719.9 55.354,0 0,-2.419 -55.354,0 0,2.419 z"
         style="fill:#a5a585"
         inkscape:connector-curvature="0" /><path
         id="path5348"
         d="m 677.626,719.9 55.354,0 0,-2.419 -55.354,0 0,2.419"
         style="fill:none;fill-opacity:0;stroke:#494936;stroke-width:0.02"
         inkscape:connector-curvature="0" /><path
         id="path5350"
         d="m 700.9,694.127 55.354,0 0,-37.867 -55.354,0 0,37.867 z"
         style="fill:#a5a585"
         inkscape:connector-curvature="0" /><path
         id="path5352"
         d="m 700.9,694.127 55.354,0 0,-37.867 -55.354,0 0,37.867"
         style="fill:none;fill-opacity:0;stroke:#494936;stroke-width:0.02"
         inkscape:connector-curvature="0" /><path
         id="path5354"
         d="m 757.769,692.635 0,-37.867 -1.515,1.492 0,37.867 1.515,-1.492 z"
         style="fill:#7a7a5a"
         inkscape:connector-curvature="0" /><path
         id="path5356"
         d="m 757.769,692.635 0,-37.867 -1.515,1.492 0,37.867 1.515,-1.492"
         style="fill:none;fill-opacity:0;stroke:#494936;stroke-width:0.02"
         inkscape:connector-curvature="0" /><path
         id="path5358"
         d="m 703.636,691.72 49.905,0 0,-32.419 -49.905,0 0,32.419 z"
         style="fill:#ffffff"
         inkscape:connector-curvature="0" /><path
         id="path5360"
         d="m 703.636,691.72 49.905,0 0,-32.419 -49.905,0 0,32.419"
         style="fill:none;fill-opacity:0;stroke:#494936;stroke-width:0.02"
         inkscape:connector-curvature="0" /><path
         id="path5362"
         d="m 703.636,695.958 46.559,0 -12.094,12.129 -46.56,0 12.095,-12.129 z"
         style="fill:#93936c"
         inkscape:connector-curvature="0" /><path
         id="path5364"
         d="m 703.636,695.958 46.559,0 -12.094,12.129 -46.56,0 12.095,-12.129"
         style="fill:none;fill-opacity:0;stroke:#494936;stroke-width:0.02"
         inkscape:connector-curvature="0" /><path
         id="path5366"
         d="m 710.881,712.767 0,-0.068 -0.011,-0.068 -0.011,-0.067 -0.034,-0.08 -0.011,-0.067 -0.046,-0.057 -0.022,-0.068 -0.057,-0.045 -0.056,-0.068 -0.034,-0.068 -0.057,-0.056 -0.068,-0.057 -0.067,-0.067 -0.08,-0.057 -0.067,-0.034 -0.079,-0.056 -0.091,-0.046 -0.102,-0.034 -0.079,-0.056 -0.102,-0.023 -0.101,-0.045 -0.091,-0.022 -0.113,-0.034 -0.101,-0.023 -0.125,-0.023 -0.102,-0.034 -0.113,-0.011 -0.101,0 -0.113,-0.011 -0.136,0 -0.09,0 0,0 -0.125,0 -0.124,0 -0.102,0.011 -0.113,0 -0.102,0.011 -0.124,0.034 -0.102,0.023 -0.113,0.023 -0.101,0.034 -0.102,0.022 -0.091,0.045 -0.113,0.023 -0.079,0.056 -0.09,0.034 -0.091,0.046 -0.079,0.056 -0.068,0.034 -0.079,0.057 -0.067,0.067 -0.057,0.057 -0.079,0.056 -0.034,0.068 -0.068,0.068 -0.034,0.045 -0.034,0.068 -0.034,0.057 -0.022,0.067 -0.012,0.08 -0.022,0.067 -0.023,0.068 0,0.068 0,0 0,0.079 0.023,0.068 0.022,0.068 0.012,0.068 0.022,0.067 0.034,0.057 0.034,0.079 0.034,0.057 0.068,0.067 0.034,0.046 0.079,0.067 0.057,0.057 0.067,0.068 0.079,0.045 0.068,0.045 0.079,0.057 0.091,0.045 0.09,0.034 0.079,0.056 0.113,0.023 0.091,0.045 0.102,0.023 0.101,0.034 0.113,0.022 0.102,0.023 0.124,0.023 0.102,0.022 0.113,0 0.102,0 0.124,0.011 0.125,0 0,0 0.09,0 0.136,-0.011 0.113,0 0.101,0 0.113,-0.022 0.102,-0.023 0.125,-0.023 0.101,-0.022 0.113,-0.034 0.091,-0.023 0.101,-0.045 0.102,-0.023 0.079,-0.056 0.102,-0.034 0.091,-0.045 0.079,-0.057 0.067,-0.045 0.08,-0.045 0.067,-0.068 0.068,-0.057 0.057,-0.067 0.034,-0.046 0.056,-0.067 0.057,-0.057 0.022,-0.079 0.046,-0.057 0.011,-0.067 0.034,-0.068 0.011,-0.068 0.011,-0.068 0,-0.079 z"
         style="fill:#7a7a5a"
         inkscape:connector-curvature="0" /><path
         id="path5368"
         d="m 710.587,712.631 0,-0.067 -0.011,-0.068 0,-0.057 -0.034,-0.045 -0.022,-0.09 -0.012,-0.034 -0.056,-0.068 -0.045,-0.068 -0.034,-0.045 -0.046,-0.045 -0.067,-0.046 -0.057,-0.079 -0.068,-0.045 -0.068,-0.034 -0.056,-0.056 -0.09,-0.046 -0.068,-0.022 -0.079,-0.057 -0.08,-0.022 -0.101,-0.046 -0.091,-0.022 -0.101,-0.023 -0.091,-0.034 -0.102,-0.022 -0.101,-0.012 -0.113,-0.034 -0.091,-0.011 -0.124,-0.011 -0.091,0 -0.113,0 -0.101,0 0,0 -0.113,0 -0.102,0 -0.113,0 -0.091,0.011 -0.113,0.011 -0.09,0.034 -0.124,0.012 -0.091,0.022 -0.079,0.034 -0.113,0.023 -0.09,0.022 -0.113,0.046 -0.057,0.022 -0.102,0.057 -0.068,0.022 -0.079,0.046 -0.067,0.056 -0.068,0.034 -0.068,0.045 -0.057,0.079 -0.056,0.046 -0.045,0.045 -0.057,0.045 -0.022,0.068 -0.046,0.068 -0.022,0.034 -0.023,0.09 -0.023,0.045 -0.011,0.057 -0.011,0.068 0,0.067 0,0 0,0.057 0.011,0.068 0.011,0.068 0.023,0.033 0.023,0.068 0.022,0.068 0.046,0.057 0.022,0.056 0.057,0.068 0.045,0.034 0.056,0.056 0.057,0.057 0.068,0.056 0.068,0.034 0.067,0.057 0.079,0.034 0.068,0.045 0.102,0.045 0.057,0.023 0.113,0.045 0.09,0.034 0.113,0.011 0.079,0.034 0.091,0.023 0.124,0.011 0.09,0.034 0.113,0.023 0.091,0 0.113,0 0.102,0 0.113,0 0,0 0.101,0 0.113,0 0.091,0 0.124,0 0.091,-0.023 0.113,-0.034 0.101,-0.011 0.102,-0.023 0.091,-0.034 0.101,-0.011 0.091,-0.034 0.101,-0.045 0.08,-0.023 0.079,-0.045 0.068,-0.045 0.09,-0.034 0.056,-0.057 0.068,-0.034 0.068,-0.056 0.057,-0.057 0.067,-0.056 0.046,-0.034 0.034,-0.068 0.045,-0.056 0.056,-0.057 0.012,-0.068 0.022,-0.068 0.034,-0.033 0,-0.068 0.011,-0.068 0,-0.057"
         style="fill:none;fill-opacity:0;stroke:#dbdbce;stroke-width:0.02"
         inkscape:connector-curvature="0" /><path
         id="path5370"
         d="m 703.342,713.83 0,0.135 0.022,0.102 0.046,0.124 0.034,0.136 0.067,0.113 0.068,0.102 0.102,0.124 0.102,0.124 0.113,0.102 0.113,0.113 0.147,0.102 0.135,0.113 0.181,0.09 0.17,0.091 0.181,0.079 0.192,0.102 0.215,0.079 0.192,0.079 0.248,0.068 0.226,0.068 0.238,0.079 0.237,0.056 0.249,0.034 0.249,0.045 0.271,0.046 0.26,0.022 0.26,0.045 0.271,0.023 0.283,0.011 0.271,0 0.271,0"
         style="fill:none;fill-opacity:0;stroke:#626248;stroke-width:0.02"
         inkscape:connector-curvature="0" /><path
         id="path5372"
         d="m 708.146,716.237 0.282,0 0.26,0 0.283,-0.022 0.249,-0.034 0.26,-0.023 0.271,-0.022 0.237,-0.046 0.26,-0.056 0.226,-0.057 0.249,-0.045 0.237,-0.068 0.215,-0.068 0.215,-0.079 0.203,-0.101 0.204,-0.08 0.169,-0.09 0.181,-0.09 0.159,-0.113 0.147,-0.091 0.146,-0.124 0.125,-0.091 0.124,-0.113 0.102,-0.135 0.068,-0.125 0.101,-0.101 0.046,-0.136 0.056,-0.124 0.045,-0.136 0,-0.102 0.023,-0.135"
         style="fill:none;fill-opacity:0;stroke:#626248;stroke-width:0.02"
         inkscape:connector-curvature="0" /><path
         id="path5374"
         d="m 709.355,709.297 -0.26,0 -0.271,0.011 -0.271,0 -0.272,0.023 -0.282,0.034 -0.271,0.011 -0.238,0.045 -0.271,0.034 -0.249,0.068 -0.237,0.022 -0.237,0.068 -0.227,0.046 -0.226,0.079 -0.203,0.067 -0.204,0.068 -0.214,0.068 -0.17,0.079 -0.181,0.079 -0.158,0.102 -0.147,0.091 -0.136,0.079 -0.135,0.113 -0.136,0.079 -0.079,0.09 -0.09,0.125 -0.08,0.09 -0.067,0.113 -0.046,0.09 -0.034,0.102 -0.011,0.125 -0.011,0.113"
         style="fill:none;fill-opacity:0;stroke:#626248;stroke-width:0.02"
         inkscape:connector-curvature="0" /><path
         id="path5376"
         d="m 713.899,711.411 -0.022,-0.125 -0.012,-0.113 -0.022,-0.102 -0.057,-0.113 -0.067,-0.101 -0.08,-0.113 -0.09,-0.091 -0.102,-0.101 -0.113,-0.114 -0.135,-0.09 -0.136,-0.102 -0.147,-0.09 -0.181,-0.079 -0.158,-0.079 -0.192,-0.08 -0.181,-0.09 -0.204,-0.068 -0.214,-0.056 -0.238,-0.068 -0.226,-0.045 -0.226,-0.068 -0.237,-0.045 -0.249,-0.046 -0.271,-0.045 -0.238,-0.022 -0.26,-0.034 -0.271,-0.023 -0.282,0 -0.249,-0.011 -0.283,0"
         style="fill:none;fill-opacity:0;stroke:#626248;stroke-width:0.02"
         inkscape:connector-curvature="0" /><path
         id="path5378"
         d="m 756.254,696.252 -23.274,23.354 0,-2.125 23.274,-23.354 0,2.125 z"
         style="fill:#7a7a5a"
         inkscape:connector-curvature="0" /><path
         id="path5380"
         d="m 756.254,696.252 -23.274,23.354 0,-2.125 23.274,-23.354 0,2.125"
         style="fill:none;fill-opacity:0;stroke:#494936;stroke-width:0.02"
         inkscape:connector-curvature="0" /><path
         id="path5382"
         d="m 748.398,692.341 0,0.577 4.533,0 0,-0.577 -4.533,0 z"
         style="fill:#7a7a5a"
         inkscape:connector-curvature="0" /><path
         id="path5384"
         d="m 748.398,692.341 0,0.577 4.533,0 0,-0.577 -4.533,0"
         style="fill:none;fill-opacity:0;stroke:#494936;stroke-width:0.02"
         inkscape:connector-curvature="0" /><path
         id="path5386"
         d="m 747.155,698.988 -46.255,0"
         style="fill:none;fill-opacity:0;stroke:#000000;stroke-width:0.02"
         inkscape:connector-curvature="0" /><path
         id="path5388"
         d="m 744.148,702.029 -46.255,0"
         style="fill:none;fill-opacity:0;stroke:#000000;stroke-width:0.02"
         inkscape:connector-curvature="0" /><path
         id="path5390"
         d="m 741.13,705.058 -46.266,0"
         style="fill:none;fill-opacity:0;stroke:#000000;stroke-width:0.02"
         inkscape:connector-curvature="0" /><path
         id="path5392"
         d="m 702.415,654.768 55.354,0 -1.515,1.492 -55.354,0 1.515,-1.492 z"
         style="fill:#c9c9b6"
         inkscape:connector-curvature="0" /><path
         id="path5394"
         d="m 702.415,654.768 55.354,0 -1.515,1.492 -55.354,0 1.515,-1.492"
         style="fill:none;fill-opacity:0;stroke:#494936;stroke-width:0.02"
         inkscape:connector-curvature="0" /></g><g
       id="g5396"><rect
         id="rect5398"
         height="61.834999"
         width="113.893"
         y="630.37201"
         x="576.86603"
         style="fill:#207373" /><rect
         id="rect5400"
         height="61.834999"
         width="113.893"
         y="630.37201"
         x="576.86603"
         style="fill:none;fill-opacity:0;stroke:#000000;stroke-width:2" /></g><text
       id="text5402"
       y="672.052"
       x="610.77399"
       style="font-style:normal;font-weight:normal;font-size:22.57780075px;font-family:sans-serif;text-anchor:start;fill:#ffffff"
       font-size="22.5778"><tspan
         id="tspan5404"
         y="672.052"
         x="610.77399">Git</tspan></text>
<text
       id="text5406"
       y="601.698"
       x="505.57599"
       style="font-style:normal;font-weight:normal;font-size:12.80000019px;font-family:sans-serif;text-anchor:start;fill:#000000"
       font-size="12.8"><tspan
         id="tspan5408"
         y="601.698"
         x="505.57599" /></text>
<text
       id="text5410"
       y="604.76202"
       x="834.60602"
       style="font-style:normal;font-weight:normal;font-size:12.80000019px;font-family:sans-serif;text-anchor:start;fill:#000000"
       font-size="12.8"><tspan
         id="tspan5412"
         y="604.76202"
         x="834.60602" /></text>
<g
       id="g5414"><path
         id="path5416"
         d="m 936.122,694.645 55.354,0 -23.274,23.354 -55.354,0 23.274,-23.354 z"
         style="fill:#c9c9b6"
         inkscape:connector-curvature="0" /><path
         id="path5418"
         d="m 936.122,694.645 55.354,0 -23.274,23.354 -55.354,0 23.274,-23.354"
         style="fill:none;fill-opacity:0;stroke:#494936;stroke-width:0.02"
         inkscape:connector-curvature="0" /><path
         id="path5420"
         d="m 938.247,714.054 0,0.124 0.023,0.102 0.034,0.135 0.045,0.136 0.068,0.102 0.079,0.124 0.102,0.113 0.101,0.102 0.102,0.124 0.136,0.125 0.135,0.101 0.147,0.091 0.17,0.09 0.158,0.102 0.204,0.079 0.181,0.102 0.203,0.079 0.226,0.079 0.226,0.068 0.215,0.068 0.237,0.067 0.238,0.068 0.248,0.034 0.272,0.045 0.26,0.023 0.271,0.045 0.249,0.034 0.282,0.034 0.283,0.011 0.271,0.012 0.271,0"
         style="fill:none;fill-opacity:0;stroke:#dbdbce;stroke-width:0.02"
         inkscape:connector-curvature="0" /><path
         id="path5422"
         d="m 943.085,716.473 0.272,0 0.26,-0.012 0.26,-0.022 0.271,-0.034 0.271,-0.023 0.249,-0.045 0.248,-0.023 0.26,-0.056 0.238,-0.057 0.248,-0.067 0.215,-0.068 0.226,-0.068 0.215,-0.079 0.204,-0.079 0.18,-0.079 0.193,-0.091 0.18,-0.102 0.159,-0.09 0.158,-0.113 0.136,-0.113 0.124,-0.113 0.102,-0.102 0.113,-0.124 0.09,-0.125 0.068,-0.101 0.079,-0.125 0.034,-0.147 0.034,-0.124 0.034,-0.113 0.011,-0.124"
         style="fill:none;fill-opacity:0;stroke:#dbdbce;stroke-width:0.02"
         inkscape:connector-curvature="0" /><path
         id="path5424"
         d="m 944.283,709.521 -0.282,0 -0.271,0.011 -0.283,0 -0.249,0.023 -0.271,0.034 -0.271,0.022 -0.26,0.023 -0.272,0.056 -0.237,0.046 -0.237,0.034 -0.238,0.056 -0.237,0.068 -0.215,0.056 -0.203,0.068 -0.204,0.091 -0.226,0.068 -0.158,0.079 -0.181,0.067 -0.169,0.091 -0.136,0.102 -0.147,0.09 -0.124,0.079 -0.125,0.102 -0.09,0.102 -0.091,0.113 -0.09,0.101 -0.045,0.091 -0.057,0.113 -0.034,0.09 -0.011,0.125 -0.011,0.09"
         style="fill:none;fill-opacity:0;stroke:#dbdbce;stroke-width:0.02"
         inkscape:connector-curvature="0" /><path
         id="path5426"
         d="m 948.805,711.612 0,-0.102 -0.011,-0.113 -0.046,-0.101 -0.045,-0.125 -0.056,-0.09 -0.091,-0.125 -0.09,-0.09 -0.091,-0.113 -0.135,-0.079 -0.102,-0.113 -0.136,-0.091 -0.181,-0.079 -0.146,-0.113 -0.17,-0.056 -0.181,-0.091 -0.203,-0.09 -0.215,-0.068 -0.215,-0.068 -0.215,-0.056 -0.226,-0.046 -0.237,-0.056 -0.249,-0.057 -0.237,-0.033 -0.249,-0.046 -0.249,-0.022 -0.259,-0.034 -0.272,-0.023 -0.282,0 -0.272,-0.011 -0.26,0"
         style="fill:none;fill-opacity:0;stroke:#dbdbce;stroke-width:0.02"
         inkscape:connector-curvature="0" /><path
         id="path5428"
         d="m 912.848,720.418 55.354,0 0,-2.419 -55.354,0 0,2.419 z"
         style="fill:#a5a585"
         inkscape:connector-curvature="0" /><path
         id="path5430"
         d="m 912.848,720.418 55.354,0 0,-2.419 -55.354,0 0,2.419"
         style="fill:none;fill-opacity:0;stroke:#494936;stroke-width:0.02"
         inkscape:connector-curvature="0" /><path
         id="path5432"
         d="m 936.122,694.645 55.354,0 0,-37.867 -55.354,0 0,37.867 z"
         style="fill:#a5a585"
         inkscape:connector-curvature="0" /><path
         id="path5434"
         d="m 936.122,694.645 55.354,0 0,-37.867 -55.354,0 0,37.867"
         style="fill:none;fill-opacity:0;stroke:#494936;stroke-width:0.02"
         inkscape:connector-curvature="0" /><path
         id="path5436"
         d="m 992.991,693.153 0,-37.867 -1.515,1.492 0,37.867 1.515,-1.492 z"
         style="fill:#7a7a5a"
         inkscape:connector-curvature="0" /><path
         id="path5438"
         d="m 992.991,693.153 0,-37.867 -1.515,1.492 0,37.867 1.515,-1.492"
         style="fill:none;fill-opacity:0;stroke:#494936;stroke-width:0.02"
         inkscape:connector-curvature="0" /><path
         id="path5440"
         d="m 938.858,692.238 49.905,0 0,-32.419 -49.905,0 0,32.419 z"
         style="fill:#ffffff"
         inkscape:connector-curvature="0" /><path
         id="path5442"
         d="m 938.858,692.238 49.905,0 0,-32.419 -49.905,0 0,32.419"
         style="fill:none;fill-opacity:0;stroke:#494936;stroke-width:0.02"
         inkscape:connector-curvature="0" /><path
         id="path5444"
         d="m 938.858,696.476 46.559,0 -12.094,12.129 -46.56,0 12.095,-12.129 z"
         style="fill:#93936c"
         inkscape:connector-curvature="0" /><path
         id="path5446"
         d="m 938.858,696.476 46.559,0 -12.094,12.129 -46.56,0 12.095,-12.129"
         style="fill:none;fill-opacity:0;stroke:#494936;stroke-width:0.02"
         inkscape:connector-curvature="0" /><path
         id="path5448"
         d="m 946.103,713.285 0,-0.068 -0.011,-0.068 -0.011,-0.067 -0.034,-0.08 -0.011,-0.067 -0.046,-0.057 -0.022,-0.068 -0.057,-0.045 -0.056,-0.068 -0.034,-0.068 -0.057,-0.056 -0.068,-0.057 -0.067,-0.067 -0.08,-0.057 -0.067,-0.034 -0.079,-0.056 -0.091,-0.046 -0.102,-0.034 -0.079,-0.056 -0.102,-0.023 -0.101,-0.045 -0.091,-0.022 -0.113,-0.034 -0.101,-0.023 -0.125,-0.023 -0.102,-0.034 -0.113,-0.011 -0.101,0 -0.113,-0.011 -0.136,0 -0.09,0 0,0 -0.125,0 -0.124,0 -0.102,0.011 -0.113,0 -0.102,0.011 -0.124,0.034 -0.102,0.023 -0.113,0.023 -0.101,0.034 -0.102,0.022 -0.091,0.045 -0.113,0.023 -0.079,0.056 -0.09,0.034 -0.091,0.046 -0.079,0.056 -0.068,0.034 -0.079,0.057 -0.067,0.067 -0.057,0.057 -0.079,0.056 -0.034,0.068 -0.068,0.068 -0.034,0.045 -0.034,0.068 -0.034,0.057 -0.022,0.067 -0.012,0.08 -0.022,0.067 -0.023,0.068 0,0.068 0,0 0,0.079 0.023,0.068 0.022,0.068 0.012,0.068 0.022,0.067 0.034,0.057 0.034,0.079 0.034,0.057 0.068,0.067 0.034,0.046 0.079,0.067 0.057,0.057 0.067,0.068 0.079,0.045 0.068,0.045 0.079,0.057 0.091,0.045 0.09,0.034 0.079,0.056 0.113,0.023 0.091,0.045 0.102,0.023 0.101,0.034 0.113,0.022 0.102,0.023 0.124,0.023 0.102,0.022 0.113,0 0.102,0 0.124,0.011 0.125,0 0,0 0.09,0 0.136,-0.011 0.113,0 0.101,0 0.113,-0.022 0.102,-0.023 0.125,-0.023 0.101,-0.022 0.113,-0.034 0.091,-0.023 0.101,-0.045 0.102,-0.023 0.079,-0.056 0.102,-0.034 0.091,-0.045 0.079,-0.057 0.067,-0.045 0.08,-0.045 0.067,-0.068 0.068,-0.057 0.057,-0.067 0.034,-0.046 0.056,-0.067 0.057,-0.057 0.022,-0.079 0.046,-0.057 0.011,-0.067 0.034,-0.068 0.011,-0.068 0.011,-0.068 0,-0.079 z"
         style="fill:#7a7a5a"
         inkscape:connector-curvature="0" /><path
         id="path5450"
         d="m 945.809,713.149 0,-0.067 -0.011,-0.068 0,-0.057 -0.034,-0.045 -0.022,-0.09 -0.012,-0.034 -0.056,-0.068 -0.045,-0.068 -0.034,-0.045 -0.046,-0.045 -0.067,-0.046 -0.057,-0.079 -0.068,-0.045 -0.068,-0.034 -0.056,-0.056 -0.09,-0.046 -0.068,-0.022 -0.079,-0.057 -0.08,-0.022 -0.101,-0.046 -0.091,-0.022 -0.101,-0.023 -0.091,-0.034 -0.102,-0.022 -0.101,-0.012 -0.113,-0.034 -0.091,-0.011 -0.124,-0.011 -0.091,0 -0.113,0 -0.101,0 0,0 -0.113,0 -0.102,0 -0.113,0 -0.091,0.011 -0.113,0.011 -0.09,0.034 -0.124,0.012 -0.091,0.022 -0.079,0.034 -0.113,0.023 -0.09,0.022 -0.113,0.046 -0.057,0.022 -0.102,0.057 -0.068,0.022 -0.079,0.046 -0.067,0.056 -0.068,0.034 -0.068,0.045 -0.057,0.079 -0.056,0.046 -0.045,0.045 -0.057,0.045 -0.022,0.068 -0.046,0.068 -0.022,0.034 -0.023,0.09 -0.023,0.045 -0.011,0.057 -0.011,0.068 0,0.067 0,0 0,0.057 0.011,0.068 0.011,0.068 0.023,0.033 0.023,0.068 0.022,0.068 0.046,0.057 0.022,0.056 0.057,0.068 0.045,0.034 0.056,0.056 0.057,0.057 0.068,0.056 0.068,0.034 0.067,0.057 0.079,0.034 0.068,0.045 0.102,0.045 0.057,0.023 0.113,0.045 0.09,0.034 0.113,0.011 0.079,0.034 0.091,0.023 0.124,0.011 0.09,0.034 0.113,0.023 0.091,0 0.113,0 0.102,0 0.113,0 0,0 0.101,0 0.113,0 0.091,0 0.124,0 0.091,-0.023 0.113,-0.034 0.101,-0.011 0.102,-0.023 0.091,-0.034 0.101,-0.011 0.091,-0.034 0.101,-0.045 0.08,-0.023 0.079,-0.045 0.068,-0.045 0.09,-0.034 0.056,-0.057 0.068,-0.034 0.068,-0.056 0.057,-0.057 0.067,-0.056 0.046,-0.034 0.034,-0.068 0.045,-0.056 0.056,-0.057 0.012,-0.068 0.022,-0.068 0.034,-0.033 0,-0.068 0.011,-0.068 0,-0.057"
         style="fill:none;fill-opacity:0;stroke:#dbdbce;stroke-width:0.02"
         inkscape:connector-curvature="0" /><path
         id="path5452"
         d="m 938.564,714.348 0,0.135 0.022,0.102 0.046,0.124 0.034,0.136 0.067,0.113 0.068,0.102 0.102,0.124 0.102,0.124 0.113,0.102 0.113,0.113 0.147,0.102 0.135,0.113 0.181,0.09 0.17,0.091 0.181,0.079 0.192,0.102 0.215,0.079 0.192,0.079 0.248,0.068 0.226,0.068 0.238,0.079 0.237,0.056 0.249,0.034 0.249,0.045 0.271,0.046 0.26,0.022 0.26,0.045 0.271,0.023 0.283,0.011 0.271,0 0.271,0"
         style="fill:none;fill-opacity:0;stroke:#626248;stroke-width:0.02"
         inkscape:connector-curvature="0" /><path
         id="path5454"
         d="m 943.368,716.755 0.282,0 0.26,0 0.283,-0.022 0.249,-0.034 0.26,-0.023 0.271,-0.022 0.237,-0.046 0.26,-0.056 0.226,-0.057 0.249,-0.045 0.237,-0.068 0.215,-0.068 0.215,-0.079 0.203,-0.101 0.204,-0.08 0.169,-0.09 0.181,-0.09 0.159,-0.113 0.147,-0.091 0.146,-0.124 0.125,-0.091 0.124,-0.113 0.102,-0.135 0.068,-0.125 0.101,-0.101 0.046,-0.136 0.056,-0.124 0.045,-0.136 0,-0.102 0.023,-0.135"
         style="fill:none;fill-opacity:0;stroke:#626248;stroke-width:0.02"
         inkscape:connector-curvature="0" /><path
         id="path5456"
         d="m 944.577,709.815 -0.26,0 -0.271,0.011 -0.271,0 -0.272,0.023 -0.282,0.034 -0.271,0.011 -0.238,0.045 -0.271,0.034 -0.249,0.068 -0.237,0.022 -0.237,0.068 -0.227,0.046 -0.226,0.079 -0.203,0.067 -0.204,0.068 -0.214,0.068 -0.17,0.079 -0.181,0.079 -0.158,0.102 -0.147,0.091 -0.136,0.079 -0.135,0.113 -0.136,0.079 -0.079,0.09 -0.09,0.125 -0.08,0.09 -0.067,0.113 -0.046,0.09 -0.034,0.102 -0.011,0.125 -0.011,0.113"
         style="fill:none;fill-opacity:0;stroke:#626248;stroke-width:0.02"
         inkscape:connector-curvature="0" /><path
         id="path5458"
         d="m 949.121,711.929 -0.022,-0.125 -0.012,-0.113 -0.022,-0.102 -0.057,-0.113 -0.067,-0.101 -0.08,-0.113 -0.09,-0.091 -0.102,-0.101 -0.113,-0.114 -0.135,-0.09 -0.136,-0.102 -0.147,-0.09 -0.181,-0.079 -0.158,-0.079 -0.192,-0.08 -0.181,-0.09 -0.204,-0.068 -0.214,-0.056 -0.238,-0.068 -0.226,-0.045 -0.226,-0.068 -0.237,-0.045 -0.249,-0.046 -0.271,-0.045 -0.238,-0.022 -0.26,-0.034 -0.271,-0.023 -0.282,0 -0.249,-0.011 -0.283,0"
         style="fill:none;fill-opacity:0;stroke:#626248;stroke-width:0.02"
         inkscape:connector-curvature="0" /><path
         id="path5460"
         d="m 991.476,696.77 -23.274,23.354 0,-2.125 23.274,-23.354 0,2.125 z"
         style="fill:#7a7a5a"
         inkscape:connector-curvature="0" /><path
         id="path5462"
         d="m 991.476,696.77 -23.274,23.354 0,-2.125 23.274,-23.354 0,2.125"
         style="fill:none;fill-opacity:0;stroke:#494936;stroke-width:0.02"
         inkscape:connector-curvature="0" /><path
         id="path5464"
         d="m 983.62,692.859 0,0.577 4.533,0 0,-0.577 -4.533,0 z"
         style="fill:#7a7a5a"
         inkscape:connector-curvature="0" /><path
         id="path5466"
         d="m 983.62,692.859 0,0.577 4.533,0 0,-0.577 -4.533,0"
         style="fill:none;fill-opacity:0;stroke:#494936;stroke-width:0.02"
         inkscape:connector-curvature="0" /><path
         id="path5468"
         d="m 982.377,699.506 -46.255,0"
         style="fill:none;fill-opacity:0;stroke:#000000;stroke-width:0.02"
         inkscape:connector-curvature="0" /><path
         id="path5470"
         d="m 979.37,702.547 -46.255,0"
         style="fill:none;fill-opacity:0;stroke:#000000;stroke-width:0.02"
         inkscape:connector-curvature="0" /><path
         id="path5472"
         d="m 976.352,705.576 -46.266,0"
         style="fill:none;fill-opacity:0;stroke:#000000;stroke-width:0.02"
         inkscape:connector-curvature="0" /><path
         id="path5474"
         d="m 937.637,655.286 55.354,0 -1.515,1.492 -55.354,0 1.515,-1.492 z"
         style="fill:#c9c9b6"
         inkscape:connector-curvature="0" /><path
         id="path5476"
         d="m 937.637,655.286 55.354,0 -1.515,1.492 -55.354,0 1.515,-1.492"
         style="fill:none;fill-opacity:0;stroke:#494936;stroke-width:0.02"
         inkscape:connector-curvature="0" /></g><g
       id="g5478"><rect
         id="rect5480"
         height="61.834999"
         width="113.893"
         y="630.89001"
         x="812.08801"
         style="fill:#207373" /><rect
         id="rect5482"
         height="61.834999"
         width="113.893"
         y="630.89001"
         x="812.08801"
         style="fill:none;fill-opacity:0;stroke:#000000;stroke-width:2" /></g><text
       id="text5484"
       y="672.57001"
       x="845.99597"
       style="font-style:normal;font-weight:normal;font-size:22.57780075px;font-family:sans-serif;text-anchor:start;fill:#ffffff"
       font-size="22.5778"><tspan
         id="tspan5486"
         y="672.57001"
         x="845.99597">Git</tspan></text>
<text
       id="text5488"
       y="605.28003"
       x="1069.83"
       style="font-style:normal;font-weight:normal;font-size:12.80000019px;font-family:sans-serif;text-anchor:start;fill:#000000"
       font-size="12.8"><tspan
         id="tspan5490"
         y="605.28003"
         x="1069.83" /></text>
<text
       id="text5492"
       y="601.46399"
       x="1059.47"
       style="font-style:normal;font-weight:normal;font-size:12.80000019px;font-family:sans-serif;text-anchor:start;fill:#000000"
       font-size="12.8"><tspan
         id="tspan5494"
         y="601.46399"
         x="1059.47" /></text>
<g
       id="g5496"><path
         id="path5498"
         d="m 1160.98,691.347 55.36,0 -23.28,23.354 -55.35,0 23.27,-23.354 z"
         style="fill:#c9c9b6"
         inkscape:connector-curvature="0" /><path
         id="path5500"
         d="m 1160.98,691.347 55.36,0 -23.28,23.354 -55.35,0 23.27,-23.354"
         style="fill:none;fill-opacity:0;stroke:#494936;stroke-width:0.02"
         inkscape:connector-curvature="0" /><path
         id="path5502"
         d="m 1163.11,710.756 0,0.124 0.02,0.102 0.04,0.135 0.04,0.136 0.07,0.102 0.08,0.124 0.1,0.113 0.1,0.102 0.1,0.124 0.14,0.125 0.13,0.101 0.15,0.091 0.17,0.09 0.16,0.102 0.2,0.079 0.18,0.102 0.21,0.079 0.22,0.079 0.23,0.068 0.21,0.068 0.24,0.067 0.24,0.068 0.25,0.034 0.27,0.045 0.26,0.023 0.27,0.045 0.25,0.034 0.28,0.034 0.28,0.011 0.28,0.012 0.27,0"
         style="fill:none;fill-opacity:0;stroke:#dbdbce;stroke-width:0.02"
         inkscape:connector-curvature="0" /><path
         id="path5504"
         d="m 1167.95,713.175 0.27,0 0.26,-0.012 0.26,-0.022 0.27,-0.034 0.27,-0.023 0.25,-0.045 0.25,-0.023 0.26,-0.056 0.24,-0.057 0.24,-0.067 0.22,-0.068 0.23,-0.068 0.21,-0.079 0.2,-0.079 0.18,-0.079 0.2,-0.091 0.18,-0.102 0.16,-0.09 0.15,-0.113 0.14,-0.113 0.12,-0.113 0.11,-0.102 0.11,-0.124 0.09,-0.125 0.07,-0.101 0.08,-0.125 0.03,-0.147 0.03,-0.124 0.04,-0.113 0.01,-0.124"
         style="fill:none;fill-opacity:0;stroke:#dbdbce;stroke-width:0.02"
         inkscape:connector-curvature="0" /><path
         id="path5506"
         d="m 1169.15,706.223 -0.29,0 -0.27,0.011 -0.28,0 -0.25,0.023 -0.27,0.034 -0.27,0.022 -0.26,0.023 -0.27,0.056 -0.24,0.046 -0.24,0.034 -0.24,0.056 -0.23,0.068 -0.22,0.056 -0.2,0.068 -0.2,0.091 -0.23,0.068 -0.16,0.079 -0.18,0.067 -0.17,0.091 -0.14,0.102 -0.14,0.09 -0.13,0.079 -0.12,0.102 -0.09,0.102 -0.09,0.113 -0.09,0.101 -0.05,0.091 -0.05,0.113 -0.04,0.09 -0.01,0.125 -0.01,0.09"
         style="fill:none;fill-opacity:0;stroke:#dbdbce;stroke-width:0.02"
         inkscape:connector-curvature="0" /><path
         id="path5508"
         d="m 1173.67,708.314 0,-0.102 -0.01,-0.113 -0.05,-0.101 -0.04,-0.125 -0.06,-0.09 -0.09,-0.125 -0.09,-0.09 -0.09,-0.113 -0.14,-0.079 -0.1,-0.113 -0.14,-0.091 -0.18,-0.079 -0.14,-0.113 -0.17,-0.056 -0.18,-0.091 -0.21,-0.09 -0.21,-0.068 -0.22,-0.068 -0.21,-0.056 -0.23,-0.046 -0.24,-0.056 -0.24,-0.057 -0.24,-0.033 -0.25,-0.046 -0.25,-0.022 -0.26,-0.034 -0.27,-0.023 -0.28,0 -0.27,-0.011 -0.26,0"
         style="fill:none;fill-opacity:0;stroke:#dbdbce;stroke-width:0.02"
         inkscape:connector-curvature="0" /><path
         id="path5510"
         d="m 1137.71,717.12 55.35,0 0,-2.419 -55.35,0 0,2.419 z"
         style="fill:#a5a585"
         inkscape:connector-curvature="0" /><path
         id="path5512"
         d="m 1137.71,717.12 55.35,0 0,-2.419 -55.35,0 0,2.419"
         style="fill:none;fill-opacity:0;stroke:#494936;stroke-width:0.02"
         inkscape:connector-curvature="0" /><path
         id="path5514"
         d="m 1160.98,691.347 55.36,0 0,-37.867 -55.36,0 0,37.867 z"
         style="fill:#a5a585"
         inkscape:connector-curvature="0" /><path
         id="path5516"
         d="m 1160.98,691.347 55.36,0 0,-37.867 -55.36,0 0,37.867"
         style="fill:none;fill-opacity:0;stroke:#494936;stroke-width:0.02"
         inkscape:connector-curvature="0" /><path
         id="path5518"
         d="m 1217.85,689.855 0,-37.867 -1.51,1.492 0,37.867 1.51,-1.492 z"
         style="fill:#7a7a5a"
         inkscape:connector-curvature="0" /><path
         id="path5520"
         d="m 1217.85,689.855 0,-37.867 -1.51,1.492 0,37.867 1.51,-1.492"
         style="fill:none;fill-opacity:0;stroke:#494936;stroke-width:0.02"
         inkscape:connector-curvature="0" /><path
         id="path5522"
         d="m 1163.72,688.94 49.91,0 0,-32.419 -49.91,0 0,32.419 z"
         style="fill:#ffffff"
         inkscape:connector-curvature="0" /><path
         id="path5524"
         d="m 1163.72,688.94 49.91,0 0,-32.419 -49.91,0 0,32.419"
         style="fill:none;fill-opacity:0;stroke:#494936;stroke-width:0.02"
         inkscape:connector-curvature="0" /><path
         id="path5526"
         d="m 1163.72,693.178 46.56,0 -12.1,12.129 -46.56,0 12.1,-12.129 z"
         style="fill:#93936c"
         inkscape:connector-curvature="0" /><path
         id="path5528"
         d="m 1163.72,693.178 46.56,0 -12.1,12.129 -46.56,0 12.1,-12.129"
         style="fill:none;fill-opacity:0;stroke:#494936;stroke-width:0.02"
         inkscape:connector-curvature="0" /><path
         id="path5530"
         d="m 1170.97,709.987 0,-0.068 -0.02,-0.068 -0.01,-0.067 -0.03,-0.08 -0.01,-0.067 -0.05,-0.057 -0.02,-0.068 -0.06,-0.045 -0.05,-0.068 -0.04,-0.068 -0.05,-0.056 -0.07,-0.057 -0.07,-0.067 -0.08,-0.057 -0.07,-0.034 -0.08,-0.056 -0.09,-0.046 -0.1,-0.034 -0.08,-0.056 -0.1,-0.023 -0.1,-0.045 -0.09,-0.022 -0.11,-0.034 -0.11,-0.023 -0.12,-0.023 -0.1,-0.034 -0.11,-0.011 -0.11,0 -0.11,-0.011 -0.13,0 -0.1,0 0,0 -0.12,0 -0.12,0 -0.11,0.011 -0.11,0 -0.1,0.011 -0.12,0.034 -0.11,0.023 -0.11,0.023 -0.1,0.034 -0.1,0.022 -0.09,0.045 -0.12,0.023 -0.08,0.056 -0.09,0.034 -0.09,0.046 -0.08,0.056 -0.06,0.034 -0.08,0.057 -0.07,0.067 -0.06,0.057 -0.08,0.056 -0.03,0.068 -0.07,0.068 -0.03,0.045 -0.04,0.068 -0.03,0.057 -0.02,0.067 -0.01,0.08 -0.03,0.067 -0.02,0.068 0,0.068 0,0 0,0.079 0.02,0.068 0.03,0.068 0.01,0.068 0.02,0.067 0.03,0.057 0.04,0.079 0.03,0.057 0.07,0.067 0.03,0.046 0.08,0.067 0.06,0.057 0.07,0.068 0.08,0.045 0.06,0.045 0.08,0.057 0.09,0.045 0.09,0.034 0.08,0.056 0.12,0.023 0.09,0.045 0.1,0.023 0.1,0.034 0.11,0.022 0.11,0.023 0.12,0.023 0.1,0.022 0.11,0 0.11,0 0.12,0.011 0.12,0 0,0 0.1,0 0.13,-0.011 0.11,0 0.11,0 0.11,-0.022 0.1,-0.023 0.12,-0.023 0.11,-0.022 0.11,-0.034 0.09,-0.023 0.1,-0.045 0.1,-0.023 0.08,-0.056 0.1,-0.034 0.09,-0.045 0.08,-0.057 0.07,-0.045 0.08,-0.045 0.07,-0.068 0.07,-0.057 0.05,-0.067 0.04,-0.046 0.05,-0.067 0.06,-0.057 0.02,-0.079 0.05,-0.057 0.01,-0.067 0.03,-0.068 0.01,-0.068 0.02,-0.068 0,-0.079 z"
         style="fill:#7a7a5a"
         inkscape:connector-curvature="0" /><path
         id="path5532"
         d="m 1170.67,709.851 0,-0.067 -0.01,-0.068 0,-0.057 -0.03,-0.045 -0.03,-0.09 -0.01,-0.034 -0.05,-0.068 -0.05,-0.068 -0.03,-0.045 -0.05,-0.045 -0.07,-0.046 -0.05,-0.079 -0.07,-0.045 -0.07,-0.034 -0.06,-0.056 -0.09,-0.046 -0.06,-0.022 -0.08,-0.057 -0.08,-0.022 -0.1,-0.046 -0.09,-0.022 -0.11,-0.023 -0.09,-0.034 -0.1,-0.022 -0.1,-0.012 -0.11,-0.034 -0.09,-0.011 -0.13,-0.011 -0.09,0 -0.11,0 -0.1,0 0,0 -0.12,0 -0.1,0 -0.11,0 -0.09,0.011 -0.11,0.011 -0.09,0.034 -0.13,0.012 -0.09,0.022 -0.08,0.034 -0.11,0.023 -0.09,0.022 -0.11,0.046 -0.06,0.022 -0.1,0.057 -0.07,0.022 -0.08,0.046 -0.07,0.056 -0.07,0.034 -0.06,0.045 -0.06,0.079 -0.06,0.046 -0.04,0.045 -0.06,0.045 -0.02,0.068 -0.05,0.068 -0.02,0.034 -0.02,0.09 -0.02,0.045 -0.01,0.057 -0.02,0.068 0,0.067 0,0 0,0.057 0.02,0.068 0.01,0.068 0.02,0.033 0.02,0.068 0.02,0.068 0.05,0.057 0.02,0.056 0.06,0.068 0.04,0.034 0.06,0.056 0.06,0.057 0.06,0.056 0.07,0.034 0.07,0.057 0.08,0.034 0.07,0.045 0.1,0.045 0.06,0.023 0.11,0.045 0.09,0.034 0.11,0.011 0.08,0.034 0.09,0.023 0.13,0.011 0.09,0.034 0.11,0.023 0.09,0 0.11,0 0.1,0 0.12,0 0,0 0.1,0 0.11,0 0.09,0 0.13,0 0.09,-0.023 0.11,-0.034 0.1,-0.011 0.1,-0.023 0.09,-0.034 0.11,-0.011 0.09,-0.034 0.1,-0.045 0.08,-0.023 0.08,-0.045 0.06,-0.045 0.09,-0.034 0.06,-0.057 0.07,-0.034 0.07,-0.056 0.05,-0.057 0.07,-0.056 0.05,-0.034 0.03,-0.068 0.05,-0.056 0.05,-0.057 0.01,-0.068 0.03,-0.068 0.03,-0.033 0,-0.068 0.01,-0.068 0,-0.057"
         style="fill:none;fill-opacity:0;stroke:#dbdbce;stroke-width:0.02"
         inkscape:connector-curvature="0" /><path
         id="path5534"
         d="m 1163.43,711.05 0,0.135 0.02,0.102 0.04,0.124 0.04,0.136 0.07,0.113 0.06,0.102 0.1,0.124 0.11,0.124 0.11,0.102 0.11,0.113 0.15,0.102 0.14,0.113 0.18,0.09 0.17,0.091 0.18,0.079 0.19,0.102 0.21,0.079 0.2,0.079 0.24,0.068 0.23,0.068 0.24,0.079 0.24,0.056 0.24,0.034 0.25,0.045 0.27,0.046 0.26,0.022 0.26,0.045 0.28,0.023 0.28,0.011 0.27,0 0.27,0"
         style="fill:none;fill-opacity:0;stroke:#626248;stroke-width:0.02"
         inkscape:connector-curvature="0" /><path
         id="path5536"
         d="m 1168.23,713.457 0.28,0 0.26,0 0.29,-0.022 0.24,-0.034 0.26,-0.023 0.27,-0.022 0.24,-0.046 0.26,-0.056 0.23,-0.057 0.25,-0.045 0.23,-0.068 0.22,-0.068 0.21,-0.079 0.21,-0.101 0.2,-0.08 0.17,-0.09 0.18,-0.09 0.16,-0.113 0.15,-0.091 0.14,-0.124 0.13,-0.091 0.12,-0.113 0.1,-0.135 0.07,-0.125 0.1,-0.101 0.05,-0.136 0.06,-0.124 0.04,-0.136 0,-0.102 0.02,-0.135"
         style="fill:none;fill-opacity:0;stroke:#626248;stroke-width:0.02"
         inkscape:connector-curvature="0" /><path
         id="path5538"
         d="m 1169.44,706.517 -0.26,0 -0.27,0.011 -0.27,0 -0.27,0.023 -0.29,0.034 -0.27,0.011 -0.24,0.045 -0.27,0.034 -0.25,0.068 -0.23,0.022 -0.24,0.068 -0.23,0.046 -0.22,0.079 -0.21,0.067 -0.2,0.068 -0.21,0.068 -0.17,0.079 -0.18,0.079 -0.16,0.102 -0.15,0.091 -0.14,0.079 -0.13,0.113 -0.14,0.079 -0.08,0.09 -0.09,0.125 -0.08,0.09 -0.06,0.113 -0.05,0.09 -0.03,0.102 -0.01,0.125 -0.02,0.113"
         style="fill:none;fill-opacity:0;stroke:#626248;stroke-width:0.02"
         inkscape:connector-curvature="0" /><path
         id="path5540"
         d="m 1173.98,708.631 -0.02,-0.125 -0.01,-0.113 -0.02,-0.102 -0.06,-0.113 -0.07,-0.101 -0.08,-0.113 -0.09,-0.091 -0.1,-0.101 -0.11,-0.114 -0.14,-0.09 -0.13,-0.102 -0.15,-0.09 -0.18,-0.079 -0.16,-0.079 -0.19,-0.08 -0.18,-0.09 -0.21,-0.068 -0.21,-0.056 -0.24,-0.068 -0.22,-0.045 -0.23,-0.068 -0.24,-0.045 -0.25,-0.046 -0.27,-0.045 -0.23,-0.022 -0.26,-0.034 -0.28,-0.023 -0.28,0 -0.25,-0.011 -0.28,0"
         style="fill:none;fill-opacity:0;stroke:#626248;stroke-width:0.02"
         inkscape:connector-curvature="0" /><path
         id="path5542"
         d="m 1216.34,693.472 -23.28,23.354 0,-2.125 23.28,-23.354 0,2.125 z"
         style="fill:#7a7a5a"
         inkscape:connector-curvature="0" /><path
         id="path5544"
         d="m 1216.34,693.472 -23.28,23.354 0,-2.125 23.28,-23.354 0,2.125"
         style="fill:none;fill-opacity:0;stroke:#494936;stroke-width:0.02"
         inkscape:connector-curvature="0" /><path
         id="path5546"
         d="m 1208.48,689.561 0,0.577 4.53,0 0,-0.577 -4.53,0 z"
         style="fill:#7a7a5a"
         inkscape:connector-curvature="0" /><path
         id="path5548"
         d="m 1208.48,689.561 0,0.577 4.53,0 0,-0.577 -4.53,0"
         style="fill:none;fill-opacity:0;stroke:#494936;stroke-width:0.02"
         inkscape:connector-curvature="0" /><path
         id="path5550"
         d="m 1207.24,696.208 -46.26,0"
         style="fill:none;fill-opacity:0;stroke:#000000;stroke-width:0.02"
         inkscape:connector-curvature="0" /><path
         id="path5552"
         d="m 1204.23,699.249 -46.25,0"
         style="fill:none;fill-opacity:0;stroke:#000000;stroke-width:0.02"
         inkscape:connector-curvature="0" /><path
         id="path5554"
         d="m 1201.21,702.278 -46.26,0"
         style="fill:none;fill-opacity:0;stroke:#000000;stroke-width:0.02"
         inkscape:connector-curvature="0" /><path
         id="path5556"
         d="m 1162.5,651.988 55.35,0 -1.51,1.492 -55.36,0 1.52,-1.492 z"
         style="fill:#c9c9b6"
         inkscape:connector-curvature="0" /><path
         id="path5558"
         d="m 1162.5,651.988 55.35,0 -1.51,1.492 -55.36,0 1.52,-1.492"
         style="fill:none;fill-opacity:0;stroke:#494936;stroke-width:0.02"
         inkscape:connector-curvature="0" /></g><g
       id="g5560"><rect
         id="rect5562"
         height="61.834999"
         width="113.893"
         y="627.59003"
         x="1036.95"
         style="fill:#207373" /><rect
         id="rect5564"
         height="61.834999"
         width="113.893"
         y="627.59003"
         x="1036.95"
         style="fill:none;fill-opacity:0;stroke:#000000;stroke-width:2" /></g><text
       id="text5566"
       y="669.27197"
       x="1070.86"
       style="font-style:normal;font-weight:normal;font-size:22.57780075px;font-family:sans-serif;text-anchor:start;fill:#ffffff"
       font-size="22.5778"><tspan
         id="tspan5568"
         y="669.27197"
         x="1070.86">Git</tspan></text>
<text
       id="text5570"
       y="601.98199"
       x="1294.6899"
       style="font-style:normal;font-weight:normal;font-size:12.80000019px;font-family:sans-serif;text-anchor:start;fill:#000000"
       font-size="12.8"><tspan
         id="tspan5572"
         y="601.98199"
         x="1294.6899" /></text>
<g
       id="g5574"><path
         id="path5576"
         d="m 1376.58,690.775 55.35,0 -23.27,23.354 -55.36,0 23.28,-23.354 z"
         style="fill:#c9c9b6"
         inkscape:connector-curvature="0" /><path
         id="path5578"
         d="m 1376.58,690.775 55.35,0 -23.27,23.354 -55.36,0 23.28,-23.354"
         style="fill:none;fill-opacity:0;stroke:#494936;stroke-width:0.02"
         inkscape:connector-curvature="0" /><path
         id="path5580"
         d="m 1378.7,710.184 0,0.124 0.02,0.102 0.04,0.135 0.04,0.136 0.07,0.102 0.08,0.124 0.1,0.113 0.1,0.102 0.11,0.124 0.13,0.125 0.14,0.101 0.14,0.091 0.17,0.09 0.16,0.102 0.2,0.079 0.19,0.102 0.2,0.079 0.23,0.079 0.22,0.068 0.22,0.068 0.23,0.067 0.24,0.068 0.25,0.034 0.27,0.045 0.26,0.023 0.27,0.045 0.25,0.034 0.28,0.034 0.29,0.011 0.27,0.012 0.27,0"
         style="fill:none;fill-opacity:0;stroke:#dbdbce;stroke-width:0.02"
         inkscape:connector-curvature="0" /><path
         id="path5582"
         d="m 1383.54,712.603 0.27,0 0.26,-0.012 0.26,-0.022 0.27,-0.034 0.27,-0.023 0.25,-0.045 0.25,-0.023 0.26,-0.056 0.24,-0.057 0.25,-0.067 0.21,-0.068 0.23,-0.068 0.21,-0.079 0.21,-0.079 0.18,-0.079 0.19,-0.091 0.18,-0.102 0.16,-0.09 0.16,-0.113 0.13,-0.113 0.13,-0.113 0.1,-0.102 0.11,-0.124 0.09,-0.125 0.07,-0.101 0.08,-0.125 0.03,-0.147 0.04,-0.124 0.03,-0.113 0.01,-0.124"
         style="fill:none;fill-opacity:0;stroke:#dbdbce;stroke-width:0.02"
         inkscape:connector-curvature="0" /><path
         id="path5584"
         d="m 1384.74,705.651 -0.29,0 -0.27,0.011 -0.28,0 -0.25,0.023 -0.27,0.034 -0.27,0.022 -0.26,0.023 -0.27,0.056 -0.24,0.046 -0.24,0.034 -0.23,0.056 -0.24,0.068 -0.22,0.056 -0.2,0.068 -0.2,0.091 -0.23,0.068 -0.16,0.079 -0.18,0.067 -0.17,0.091 -0.13,0.102 -0.15,0.09 -0.12,0.079 -0.13,0.102 -0.09,0.102 -0.09,0.113 -0.09,0.101 -0.05,0.091 -0.05,0.113 -0.04,0.09 -0.01,0.125 -0.01,0.09"
         style="fill:none;fill-opacity:0;stroke:#dbdbce;stroke-width:0.02"
         inkscape:connector-curvature="0" /><path
         id="path5586"
         d="m 1389.26,707.742 0,-0.102 -0.01,-0.113 -0.05,-0.101 -0.04,-0.125 -0.06,-0.09 -0.09,-0.125 -0.09,-0.09 -0.09,-0.113 -0.14,-0.079 -0.1,-0.113 -0.13,-0.091 -0.18,-0.079 -0.15,-0.113 -0.17,-0.056 -0.18,-0.091 -0.21,-0.09 -0.21,-0.068 -0.21,-0.068 -0.22,-0.056 -0.23,-0.046 -0.23,-0.056 -0.25,-0.057 -0.24,-0.033 -0.25,-0.046 -0.25,-0.022 -0.26,-0.034 -0.27,-0.023 -0.28,0 -0.27,-0.011 -0.26,0"
         style="fill:none;fill-opacity:0;stroke:#dbdbce;stroke-width:0.02"
         inkscape:connector-curvature="0" /><path
         id="path5588"
         d="m 1353.3,716.548 55.36,0 0,-2.419 -55.36,0 0,2.419 z"
         style="fill:#a5a585"
         inkscape:connector-curvature="0" /><path
         id="path5590"
         d="m 1353.3,716.548 55.36,0 0,-2.419 -55.36,0 0,2.419"
         style="fill:none;fill-opacity:0;stroke:#494936;stroke-width:0.02"
         inkscape:connector-curvature="0" /><path
         id="path5592"
         d="m 1376.58,690.775 55.35,0 0,-37.867 -55.35,0 0,37.867 z"
         style="fill:#a5a585"
         inkscape:connector-curvature="0" /><path
         id="path5594"
         d="m 1376.58,690.775 55.35,0 0,-37.867 -55.35,0 0,37.867"
         style="fill:none;fill-opacity:0;stroke:#494936;stroke-width:0.02"
         inkscape:connector-curvature="0" /><path
         id="path5596"
         d="m 1433.44,689.283 0,-37.867 -1.51,1.492 0,37.867 1.51,-1.492 z"
         style="fill:#7a7a5a"
         inkscape:connector-curvature="0" /><path
         id="path5598"
         d="m 1433.44,689.283 0,-37.867 -1.51,1.492 0,37.867 1.51,-1.492"
         style="fill:none;fill-opacity:0;stroke:#494936;stroke-width:0.02"
         inkscape:connector-curvature="0" /><path
         id="path5600"
         d="m 1379.31,688.368 49.91,0 0,-32.419 -49.91,0 0,32.419 z"
         style="fill:#ffffff"
         inkscape:connector-curvature="0" /><path
         id="path5602"
         d="m 1379.31,688.368 49.91,0 0,-32.419 -49.91,0 0,32.419"
         style="fill:none;fill-opacity:0;stroke:#494936;stroke-width:0.02"
         inkscape:connector-curvature="0" /><path
         id="path5604"
         d="m 1379.31,692.606 46.56,0 -12.09,12.129 -46.56,0 12.09,-12.129 z"
         style="fill:#93936c"
         inkscape:connector-curvature="0" /><path
         id="path5606"
         d="m 1379.31,692.606 46.56,0 -12.09,12.129 -46.56,0 12.09,-12.129"
         style="fill:none;fill-opacity:0;stroke:#494936;stroke-width:0.02"
         inkscape:connector-curvature="0" /><path
         id="path5608"
         d="m 1386.56,709.415 0,-0.068 -0.01,-0.068 -0.02,-0.067 -0.03,-0.08 -0.01,-0.067 -0.05,-0.057 -0.02,-0.068 -0.05,-0.045 -0.06,-0.068 -0.04,-0.068 -0.05,-0.056 -0.07,-0.057 -0.07,-0.067 -0.08,-0.057 -0.06,-0.034 -0.08,-0.056 -0.09,-0.046 -0.11,-0.034 -0.07,-0.056 -0.11,-0.023 -0.1,-0.045 -0.09,-0.022 -0.11,-0.034 -0.1,-0.023 -0.13,-0.023 -0.1,-0.034 -0.11,-0.011 -0.1,0 -0.12,-0.011 -0.13,0 -0.09,0 0,0 -0.13,0 -0.12,0 -0.1,0.011 -0.12,0 -0.1,0.011 -0.12,0.034 -0.1,0.023 -0.12,0.023 -0.1,0.034 -0.1,0.022 -0.09,0.045 -0.11,0.023 -0.08,0.056 -0.09,0.034 -0.09,0.046 -0.08,0.056 -0.07,0.034 -0.08,0.057 -0.07,0.067 -0.06,0.057 -0.07,0.056 -0.04,0.068 -0.07,0.068 -0.03,0.045 -0.03,0.068 -0.04,0.057 -0.02,0.067 -0.01,0.08 -0.02,0.067 -0.03,0.068 0,0.068 0,0 0,0.079 0.03,0.068 0.02,0.068 0.01,0.068 0.02,0.067 0.04,0.057 0.03,0.079 0.03,0.057 0.07,0.067 0.04,0.046 0.07,0.067 0.06,0.057 0.07,0.068 0.08,0.045 0.07,0.045 0.08,0.057 0.09,0.045 0.09,0.034 0.08,0.056 0.11,0.023 0.09,0.045 0.1,0.023 0.1,0.034 0.12,0.022 0.1,0.023 0.12,0.023 0.1,0.022 0.12,0 0.1,0 0.12,0.011 0.13,0 0,0 0.09,0 0.13,-0.011 0.12,0 0.1,0 0.11,-0.022 0.1,-0.023 0.13,-0.023 0.1,-0.022 0.11,-0.034 0.09,-0.023 0.1,-0.045 0.11,-0.023 0.07,-0.056 0.11,-0.034 0.09,-0.045 0.08,-0.057 0.06,-0.045 0.08,-0.045 0.07,-0.068 0.07,-0.057 0.05,-0.067 0.04,-0.046 0.06,-0.067 0.05,-0.057 0.02,-0.079 0.05,-0.057 0.01,-0.067 0.03,-0.068 0.02,-0.068 0.01,-0.068 0,-0.079 z"
         style="fill:#7a7a5a"
         inkscape:connector-curvature="0" /><path
         id="path5610"
         d="m 1386.26,709.279 0,-0.067 -0.01,-0.068 0,-0.057 -0.03,-0.045 -0.02,-0.09 -0.02,-0.034 -0.05,-0.068 -0.05,-0.068 -0.03,-0.045 -0.05,-0.045 -0.06,-0.046 -0.06,-0.079 -0.07,-0.045 -0.07,-0.034 -0.05,-0.056 -0.09,-0.046 -0.07,-0.022 -0.08,-0.057 -0.08,-0.022 -0.1,-0.046 -0.09,-0.022 -0.1,-0.023 -0.09,-0.034 -0.11,-0.022 -0.1,-0.012 -0.11,-0.034 -0.09,-0.011 -0.13,-0.011 -0.09,0 -0.11,0 -0.1,0 0,0 -0.11,0 -0.11,0 -0.11,0 -0.09,0.011 -0.11,0.011 -0.09,0.034 -0.13,0.012 -0.09,0.022 -0.08,0.034 -0.11,0.023 -0.09,0.022 -0.11,0.046 -0.06,0.022 -0.1,0.057 -0.07,0.022 -0.08,0.046 -0.07,0.056 -0.06,0.034 -0.07,0.045 -0.06,0.079 -0.05,0.046 -0.05,0.045 -0.06,0.045 -0.02,0.068 -0.04,0.068 -0.03,0.034 -0.02,0.09 -0.02,0.045 -0.01,0.057 -0.01,0.068 0,0.067 0,0 0,0.057 0.01,0.068 0.01,0.068 0.02,0.033 0.02,0.068 0.03,0.068 0.04,0.057 0.02,0.056 0.06,0.068 0.05,0.034 0.05,0.056 0.06,0.057 0.07,0.056 0.06,0.034 0.07,0.057 0.08,0.034 0.07,0.045 0.1,0.045 0.06,0.023 0.11,0.045 0.09,0.034 0.11,0.011 0.08,0.034 0.09,0.023 0.13,0.011 0.09,0.034 0.11,0.023 0.09,0 0.11,0 0.11,0 0.11,0 0,0 0.1,0 0.11,0 0.09,0 0.13,0 0.09,-0.023 0.11,-0.034 0.1,-0.011 0.11,-0.023 0.09,-0.034 0.1,-0.011 0.09,-0.034 0.1,-0.045 0.08,-0.023 0.08,-0.045 0.07,-0.045 0.09,-0.034 0.05,-0.057 0.07,-0.034 0.07,-0.056 0.06,-0.057 0.06,-0.056 0.05,-0.034 0.03,-0.068 0.05,-0.056 0.05,-0.057 0.02,-0.068 0.02,-0.068 0.03,-0.033 0,-0.068 0.01,-0.068 0,-0.057"
         style="fill:none;fill-opacity:0;stroke:#dbdbce;stroke-width:0.02"
         inkscape:connector-curvature="0" /><path
         id="path5612"
         d="m 1379.02,710.478 0,0.135 0.02,0.102 0.05,0.124 0.03,0.136 0.07,0.113 0.07,0.102 0.1,0.124 0.1,0.124 0.11,0.102 0.11,0.113 0.15,0.102 0.14,0.113 0.18,0.09 0.17,0.091 0.18,0.079 0.19,0.102 0.22,0.079 0.19,0.079 0.25,0.068 0.22,0.068 0.24,0.079 0.24,0.056 0.25,0.034 0.24,0.045 0.28,0.046 0.26,0.022 0.26,0.045 0.27,0.023 0.28,0.011 0.27,0 0.27,0"
         style="fill:none;fill-opacity:0;stroke:#626248;stroke-width:0.02"
         inkscape:connector-curvature="0" /><path
         id="path5614"
         d="m 1383.82,712.885 0.28,0 0.26,0 0.29,-0.022 0.25,-0.034 0.26,-0.023 0.27,-0.022 0.23,-0.046 0.26,-0.056 0.23,-0.057 0.25,-0.045 0.24,-0.068 0.21,-0.068 0.22,-0.079 0.2,-0.101 0.2,-0.08 0.17,-0.09 0.18,-0.09 0.16,-0.113 0.15,-0.091 0.15,-0.124 0.12,-0.091 0.12,-0.113 0.11,-0.135 0.06,-0.125 0.11,-0.101 0.04,-0.136 0.06,-0.124 0.04,-0.136 0,-0.102 0.03,-0.135"
         style="fill:none;fill-opacity:0;stroke:#626248;stroke-width:0.02"
         inkscape:connector-curvature="0" /><path
         id="path5616"
         d="m 1385.03,705.945 -0.26,0 -0.27,0.011 -0.27,0 -0.27,0.023 -0.29,0.034 -0.27,0.011 -0.23,0.045 -0.28,0.034 -0.24,0.068 -0.24,0.022 -0.24,0.068 -0.22,0.046 -0.23,0.079 -0.2,0.067 -0.21,0.068 -0.21,0.068 -0.17,0.079 -0.18,0.079 -0.16,0.102 -0.15,0.091 -0.13,0.079 -0.14,0.113 -0.13,0.079 -0.08,0.09 -0.09,0.125 -0.08,0.09 -0.07,0.113 -0.05,0.09 -0.03,0.102 -0.01,0.125 -0.01,0.113"
         style="fill:none;fill-opacity:0;stroke:#626248;stroke-width:0.02"
         inkscape:connector-curvature="0" /><path
         id="path5618"
         d="m 1389.58,708.059 -0.03,-0.125 -0.01,-0.113 -0.02,-0.102 -0.06,-0.113 -0.07,-0.101 -0.07,-0.113 -0.1,-0.091 -0.1,-0.101 -0.11,-0.114 -0.14,-0.09 -0.13,-0.102 -0.15,-0.09 -0.18,-0.079 -0.16,-0.079 -0.19,-0.08 -0.18,-0.09 -0.2,-0.068 -0.22,-0.056 -0.24,-0.068 -0.22,-0.045 -0.23,-0.068 -0.24,-0.045 -0.24,-0.046 -0.28,-0.045 -0.23,-0.022 -0.26,-0.034 -0.27,-0.023 -0.29,0 -0.25,-0.011 -0.28,0"
         style="fill:none;fill-opacity:0;stroke:#626248;stroke-width:0.02"
         inkscape:connector-curvature="0" /><path
         id="path5620"
         d="m 1431.93,692.9 -23.27,23.354 0,-2.125 23.27,-23.354 0,2.125 z"
         style="fill:#7a7a5a"
         inkscape:connector-curvature="0" /><path
         id="path5622"
         d="m 1431.93,692.9 -23.27,23.354 0,-2.125 23.27,-23.354 0,2.125"
         style="fill:none;fill-opacity:0;stroke:#494936;stroke-width:0.02"
         inkscape:connector-curvature="0" /><path
         id="path5624"
         d="m 1424.07,688.989 0,0.577 4.54,0 0,-0.577 -4.54,0 z"
         style="fill:#7a7a5a"
         inkscape:connector-curvature="0" /><path
         id="path5626"
         d="m 1424.07,688.989 0,0.577 4.54,0 0,-0.577 -4.54,0"
         style="fill:none;fill-opacity:0;stroke:#494936;stroke-width:0.02"
         inkscape:connector-curvature="0" /><path
         id="path5628"
         d="m 1422.83,695.636 -46.25,0"
         style="fill:none;fill-opacity:0;stroke:#000000;stroke-width:0.02"
         inkscape:connector-curvature="0" /><path
         id="path5630"
         d="m 1419.82,698.677 -46.25,0"
         style="fill:none;fill-opacity:0;stroke:#000000;stroke-width:0.02"
         inkscape:connector-curvature="0" /><path
         id="path5632"
         d="m 1416.81,701.706 -46.27,0"
         style="fill:none;fill-opacity:0;stroke:#000000;stroke-width:0.02"
         inkscape:connector-curvature="0" /><path
         id="path5634"
         d="m 1378.09,651.416 55.35,0 -1.51,1.492 -55.35,0 1.51,-1.492 z"
         style="fill:#c9c9b6"
         inkscape:connector-curvature="0" /><path
         id="path5636"
         d="m 1378.09,651.416 55.35,0 -1.51,1.492 -55.35,0 1.51,-1.492"
         style="fill:none;fill-opacity:0;stroke:#494936;stroke-width:0.02"
         inkscape:connector-curvature="0" /></g><g
       id="g5638"><rect
         id="rect5640"
         height="61.834999"
         width="113.893"
         y="627.01801"
         x="1252.54"
         style="fill:#207373" /><rect
         id="rect5642"
         height="61.834999"
         width="113.893"
         y="627.01801"
         x="1252.54"
         style="fill:none;fill-opacity:0;stroke:#000000;stroke-width:2" /></g><text
       id="text5644"
       y="668.698"
       x="1286.45"
       style="font-style:normal;font-weight:normal;font-size:22.57780075px;font-family:sans-serif;text-anchor:start;fill:#ffffff"
       font-size="22.5778"><tspan
         id="tspan5646"
         y="668.698"
         x="1286.45">Git</tspan></text>
<g
       id="g5648"><path
         id="path5650"
         d="m 802.814,458.478 c -33.528,0 -119.488,99.236 -135.294,126.273"
         style="fill:none;fill-opacity:0;stroke:#000000;stroke-width:2"
         inkscape:connector-curvature="0" /><polygon
         id="polygon5652"
         points="802.814,458.478 800.314,453.478 810.314,458.478 800.314,463.478 "
         style="fill:#000000" /><polygon
         id="polygon5654"
         points="802.814,458.478 800.314,453.478 810.314,458.478 800.314,463.478 "
         style="fill:none;fill-opacity:0;stroke:#000000;stroke-width:2" /><polygon
         id="polygon5656"
         points="667.52,584.751 673.098,585.116 663.735,591.226 664.465,580.069 "
         style="fill:#000000" /><polygon
         id="polygon5658"
         points="667.52,584.751 673.098,585.116 663.735,591.226 664.465,580.069 "
         style="fill:none;fill-opacity:0;stroke:#000000;stroke-width:2" /></g><g
       id="g5660"><path
         id="path5662"
         d="m 896.598,513.548 c 2.856,0 -4.104,88.332 -1.248,88.332"
         style="fill:none;fill-opacity:0;stroke:#000000;stroke-width:2"
         inkscape:connector-curvature="0" /><polygon
         id="polygon5664"
         points="896.598,513.548 894.098,508.548 904.098,513.548 894.098,518.548 "
         style="fill:#000000" /><polygon
         id="polygon5666"
         points="896.598,513.548 894.098,508.548 904.098,513.548 894.098,518.548 "
         style="fill:none;fill-opacity:0;stroke:#000000;stroke-width:2" /><polygon
         id="polygon5668"
         points="895.35,601.88 897.85,606.88 887.85,601.88 897.85,596.88 "
         style="fill:#000000" /><polygon
         id="polygon5670"
         points="895.35,601.88 897.85,606.88 887.85,601.88 897.85,596.88 "
         style="fill:none;fill-opacity:0;stroke:#000000;stroke-width:2" /></g><g
       id="g5672"><path
         id="path5674"
         d="m 1086.73,468.838 c 19.05,0 77.51,117.774 77.17,133.122"
         style="fill:none;fill-opacity:0;stroke:#000000;stroke-width:2"
         inkscape:connector-curvature="0" /><polygon
         id="polygon5676"
         points="1086.73,468.838 1089.23,473.838 1079.23,468.838 1089.23,463.838 "
         style="fill:#000000" /><polygon
         id="polygon5678"
         points="1086.73,468.838 1089.23,473.838 1079.23,468.838 1089.23,463.838 "
         style="fill:none;fill-opacity:0;stroke:#000000;stroke-width:2" /><polygon
         id="polygon5680"
         points="1163.9,601.96 1168.96,599.57 1163.74,609.458 1158.96,599.352 "
         style="fill:#000000" /><polygon
         id="polygon5682"
         points="1163.9,601.96 1168.96,599.57 1163.74,609.458 1158.96,599.352 "
         style="fill:none;fill-opacity:0;stroke:#000000;stroke-width:2" /></g><g
       id="g5684"><path
         id="path5686"
         d="m 1135.26,455.206 c 59.78,0 197.57,97.414 199.27,141.307"
         style="fill:none;fill-opacity:0;stroke:#000000;stroke-width:2"
         inkscape:connector-curvature="0" /><polygon
         id="polygon5688"
         points="1135.26,455.206 1137.76,460.206 1127.76,455.206 1137.76,450.206 "
         style="fill:#000000" /><polygon
         id="polygon5690"
         points="1135.26,455.206 1137.76,460.206 1127.76,455.206 1137.76,450.206 "
         style="fill:none;fill-opacity:0;stroke:#000000;stroke-width:2" /><polygon
         id="polygon5692"
         points="1334.53,596.513 1339.42,593.822 1334.82,604.008 1329.43,594.209 "
         style="fill:#000000" /><polygon
         id="polygon5694"
         points="1334.53,596.513 1339.42,593.822 1334.82,604.008 1329.43,594.209 "
         style="fill:none;fill-opacity:0;stroke:#000000;stroke-width:2" /></g><text
       id="text5696"
       y="507.44199"
       x="683.29401"
       style="font-style:normal;font-weight:normal;font-size:12.80000019px;font-family:sans-serif;text-anchor:start;fill:#000000"
       font-size="12.8"><tspan
         id="tspan5698"
         y="507.44199"
         x="683.29401">clone</tspan></text>
<text
       id="text5700"
       y="557.41602"
       x="849.49402"
       style="font-style:normal;font-weight:normal;font-size:12.80000019px;font-family:sans-serif;text-anchor:start;fill:#000000"
       font-size="12.8"><tspan
         id="tspan5702"
         y="557.41602"
         x="849.49402">clone</tspan></text>
<text
       id="text5704"
       y="553.89203"
       x="1093.6899"
       style="font-style:normal;font-weight:normal;font-size:12.80000019px;font-family:sans-serif;text-anchor:start;fill:#000000"
       font-size="12.8"><tspan
         id="tspan5706"
         y="553.89203"
         x="1093.6899">clone</tspan></text>
<text
       id="text5708"
       y="542.36603"
       x="1233.39"
       style="font-style:normal;font-weight:normal;font-size:12.80000019px;font-family:sans-serif;text-anchor:start;fill:#000000"
       font-size="12.8"><tspan
         id="tspan5710"
         y="542.36603"
         x="1233.39">clone</tspan></text>
<text
       id="text5712"
       y="528.41602"
       x="728.49402"
       style="font-style:normal;font-weight:normal;font-size:12.80000019px;font-family:sans-serif;text-anchor:start;fill:#000000"
       font-size="12.8"><tspan
         id="tspan5714"
         y="528.41602"
         x="728.49402">push/pull</tspan></text>
<text
       id="text5716"
       y="559.89203"
       x="908.69397"
       style="font-style:normal;font-weight:normal;font-size:12.80000019px;font-family:sans-serif;text-anchor:start;fill:#000000"
       font-size="12.8"><tspan
         id="tspan5718"
         y="559.89203"
         x="908.69397">push/pull</tspan></text>
<text
       id="text5720"
       y="534.36603"
       x="1143.39"
       style="font-style:normal;font-weight:normal;font-size:12.80000019px;font-family:sans-serif;text-anchor:start;fill:#000000"
       font-size="12.8"><tspan
         id="tspan5722"
         y="534.36603"
         x="1143.39">push/pull</tspan></text>
<text
       id="text5724"
       y="527.34198"
       x="1300.59"
       style="font-style:normal;font-weight:normal;font-size:12.80000019px;font-family:sans-serif;text-anchor:start;fill:#000000"
       font-size="12.8"><tspan
         id="tspan5726"
         y="527.34198"
         x="1300.59">push/pull</tspan></text>
</g></svg>