<?xml version="1.0" encoding="UTF-8" standalone="no"?>
<!-- Generator: Adobe Illustrator 18.1.1, SVG Export Plug-In . SVG Version: 6.00 Build 0)  -->

<svg
   xmlns:dc="http://purl.org/dc/elements/1.1/"
   xmlns:cc="http://creativecommons.org/ns#"
   xmlns:rdf="http://www.w3.org/1999/02/22-rdf-syntax-ns#"
   xmlns:svg="http://www.w3.org/2000/svg"
   xmlns="http://www.w3.org/2000/svg"
   xmlns:sodipodi="http://sodipodi.sourceforge.net/DTD/sodipodi-0.dtd"
   xmlns:inkscape="http://www.inkscape.org/namespaces/inkscape"
   version="1.1"
   x="0px"
   y="0px"
   viewBox="0 0 1400 500"
   enable-background="new 0 0 1200 900"
   xml:space="preserve"
   id="svg2"
   inkscape:version="0.91 r13725"
   sodipodi:docname="git_fork.svg"
   width="1400"
   height="500"><metadata
     id="metadata232"><rdf:RDF><cc:Work
         rdf:about=""><dc:format>image/svg+xml</dc:format><dc:type
           rdf:resource="http://purl.org/dc/dcmitype/StillImage" /><dc:title></dc:title></cc:Work></rdf:RDF></metadata><defs
     id="defs230" /><sodipodi:namedview
     pagecolor="#ffffff"
     bordercolor="#666666"
     borderopacity="1"
     objecttolerance="10"
     gridtolerance="10"
     guidetolerance="10"
     inkscape:pageopacity="0"
     inkscape:pageshadow="2"
     inkscape:window-width="2880"
     inkscape:window-height="1577"
     id="namedview228"
     showgrid="false"
     inkscape:zoom="0.74167644"
     inkscape:cx="493.06071"
     inkscape:cy="243.51496"
     inkscape:window-x="0"
     inkscape:window-y="0"
     inkscape:window-maximized="1"
     inkscape:current-layer="svg2" /><g
     id="g4996"
     transform="matrix(1.1321025,0,0,1.3451607,-742.15819,-402.68452)"><g
       id="g4656"><rect
         id="rect4658"
         height="61.834999"
         width="113.893"
         y="336.134"
         x="1034.64"
         style="fill:#cfa4a4" /><rect
         id="rect4660"
         height="61.834999"
         width="113.893"
         y="336.134"
         x="1034.64"
         style="fill:none;fill-opacity:0;stroke:#000000;stroke-width:2" /></g><text
       id="text4662"
       y="376.724"
       x="1056.01"
       style="font-style:normal;font-weight:normal;font-size:22.57780075px;font-family:sans-serif;text-anchor:start;fill:#ffffff"
       font-size="22.5778"><tspan
         id="tspan4664"
         y="376.724"
         x="1056.01">Github</tspan></text>
<g
       id="g4666"><path
         id="path4668"
         d="m 1177.29,352.815 0,81.33 50.69,0 0,-81.33 -50.69,0 z"
         style="fill:#b7b79d"
         inkscape:connector-curvature="0" /><path
         id="path4670"
         d="m 1177.57,353.124 0,81.33 50.68,0 0,-81.33 -50.68,0 z"
         style="fill:#b7b79d"
         inkscape:connector-curvature="0" /><path
         id="path4672"
         d="m 1177.57,353.124 0,81.33 50.68,0 0,-81.33 -50.68,0"
         style="fill:none;fill-opacity:0;stroke:#494936;stroke-width:0.02"
         inkscape:connector-curvature="0" /><path
         id="path4674"
         d="m 1180.66,374.759 20.07,0 0,7.105 -20.07,0 0,-7.105 z"
         style="fill:#000000"
         inkscape:connector-curvature="0" /><path
         id="path4676"
         d="m 1180.66,374.759 20.06,0 0,7.094 -20.06,0 0,-7.094"
         style="fill:none;fill-opacity:0;stroke:#ecece7;stroke-width:0.02"
         inkscape:connector-curvature="0" /><path
         id="path4678"
         d="m 1180.96,381.566 0,-6.52 19.46,0"
         style="fill:none;fill-opacity:0;stroke:#494936;stroke-width:0.02"
         inkscape:connector-curvature="0" /><path
         id="path4680"
         d="m 1177.29,352.815 18.26,-18.343 50.7,0 -18.27,18.343 -50.69,0 z"
         style="fill:#c9c9b6"
         inkscape:connector-curvature="0" /><path
         id="path4682"
         d="m 1177.57,353.124 18.29,-18.375 50.68,0 -18.29,18.375 -50.68,0 z"
         style="fill:#c9c9b6"
         inkscape:connector-curvature="0" /><path
         id="path4684"
         d="m 1177.57,353.124 18.29,-18.375 50.68,0 -18.29,18.375 -50.68,0"
         style="fill:none;fill-opacity:0;stroke:#494936;stroke-width:0.02"
         inkscape:connector-curvature="0" /><path
         id="path4686"
         d="m 1227.98,434.145 18.27,-18.375 0,-81.298 -18.27,18.343 0,81.33 z"
         style="fill:#7a7a5a"
         inkscape:connector-curvature="0" /><path
         id="path4688"
         d="m 1228.25,434.454 18.29,-18.375 0,-81.33 -18.29,18.375 0,81.33 z"
         style="fill:#7a7a5a"
         inkscape:connector-curvature="0" /><path
         id="path4690"
         d="m 1228.25,434.454 18.29,-18.375 0,-81.33 -18.29,18.375 0,81.33"
         style="fill:none;fill-opacity:0;stroke:#494936;stroke-width:0.02"
         inkscape:connector-curvature="0" /><path
         id="path4692"
         d="m 1227.98,362.008 -50.1,0"
         style="fill:none;fill-opacity:0;stroke:#ecece7;stroke-width:2.24000001"
         inkscape:connector-curvature="0" /><path
         id="path4694"
         d="m 1227.98,361.412 -50.1,0"
         style="fill:none;fill-opacity:0;stroke:#494936;stroke-width:2.24000001"
         inkscape:connector-curvature="0" /><path
         id="path4696"
         d="m 1226.78,362.615 0.01,-0.01"
         style="fill:none;fill-opacity:0;stroke:#ecece7;stroke-width:3.05999994"
         inkscape:connector-curvature="0" /><path
         id="path4698"
         d="m 1226.78,362.008 0.01,-0.011"
         style="fill:none;fill-opacity:0;stroke:#494936;stroke-width:3.05999994"
         inkscape:connector-curvature="0" /><path
         id="path4700"
         d="m 1204.25,374.759 20.05,0 0,7.105 -20.05,0 0,-7.105 z"
         style="fill:#000000"
         inkscape:connector-curvature="0" /><path
         id="path4702"
         d="m 1204.25,374.759 20.04,0 0,7.094 -20.04,0 0,-7.094"
         style="fill:none;fill-opacity:0;stroke:#ecece7;stroke-width:0.02"
         inkscape:connector-curvature="0" /><path
         id="path4704"
         d="m 1204.53,381.566 0,-6.52 19.46,0"
         style="fill:none;fill-opacity:0;stroke:#494936;stroke-width:0.02"
         inkscape:connector-curvature="0" /></g><text
       id="text4706"
       y="307.45999"
       x="963.354"
       style="font-style:normal;font-weight:normal;font-size:12.80000019px;font-family:sans-serif;text-anchor:start;fill:#000000"
       font-size="12.8"><tspan
         id="tspan4708"
         y="307.45999"
         x="963.354" /></text>
<text
       id="text4710"
       y="319.71201"
       x="988.96802"
       style="font-style:normal;font-weight:normal;font-size:12.80000019px;font-family:sans-serif;text-anchor:start;fill:#000000"
       font-size="12.8"><tspan
         id="tspan4712"
         y="319.71201"
         x="988.96802">https://github.com/oss-sungshin/git-lecture</tspan></text>
<g
       id="g4714"><rect
         id="rect4716"
         height="61.834999"
         width="113.893"
         y="560.87799"
         x="717.36798"
         style="fill:#cfa4a4" /><rect
         id="rect4718"
         height="61.834999"
         width="113.893"
         y="560.87799"
         x="717.36798"
         style="fill:none;fill-opacity:0;stroke:#000000;stroke-width:2" /></g><text
       id="text4720"
       y="601.46802"
       x="738.73602"
       style="font-style:normal;font-weight:normal;font-size:22.57780075px;font-family:sans-serif;text-anchor:start;fill:#ffffff"
       font-size="22.5778"><tspan
         id="tspan4722"
         y="601.46802"
         x="738.73602">Github</tspan></text>
<g
       id="g4724"><path
         id="path4726"
         d="m 860.016,577.557 0,81.33 50.683,0 0,-81.33 -50.683,0 z"
         style="fill:#b7b79d"
         inkscape:connector-curvature="0" /><path
         id="path4728"
         d="m 860.293,577.866 0,81.33 50.683,0 0,-81.33 -50.683,0 z"
         style="fill:#b7b79d"
         inkscape:connector-curvature="0" /><path
         id="path4730"
         d="m 860.293,577.866 0,81.33 50.683,0 0,-81.33 -50.683,0"
         style="fill:none;fill-opacity:0;stroke:#494936;stroke-width:0.02"
         inkscape:connector-curvature="0" /><path
         id="path4732"
         d="m 863.382,599.501 20.069,0 0,7.105 -20.069,0 0,-7.105 z"
         style="fill:#000000"
         inkscape:connector-curvature="0" /><path
         id="path4734"
         d="m 863.382,599.501 20.058,0 0,7.094 -20.058,0 0,-7.094"
         style="fill:none;fill-opacity:0;stroke:#ecece7;stroke-width:0.02"
         inkscape:connector-curvature="0" /><path
         id="path4736"
         d="m 863.68,606.308 0,-6.52 19.462,0"
         style="fill:none;fill-opacity:0;stroke:#494936;stroke-width:0.02"
         inkscape:connector-curvature="0" /><path
         id="path4738"
         d="m 860.016,577.557 18.258,-18.343 50.705,0 -18.28,18.343 -50.683,0 z"
         style="fill:#c9c9b6"
         inkscape:connector-curvature="0" /><path
         id="path4740"
         d="m 860.293,577.866 18.29,-18.375 50.683,0 -18.29,18.375 -50.683,0 z"
         style="fill:#c9c9b6"
         inkscape:connector-curvature="0" /><path
         id="path4742"
         d="m 860.293,577.866 18.29,-18.375 50.683,0 -18.29,18.375 -50.683,0"
         style="fill:none;fill-opacity:0;stroke:#494936;stroke-width:0.02"
         inkscape:connector-curvature="0" /><path
         id="path4744"
         d="m 910.699,658.887 18.28,-18.375 0,-81.298 -18.28,18.343 0,81.33 z"
         style="fill:#7a7a5a"
         inkscape:connector-curvature="0" /><path
         id="path4746"
         d="m 910.976,659.196 18.29,-18.375 0,-81.33 -18.29,18.375 0,81.33 z"
         style="fill:#7a7a5a"
         inkscape:connector-curvature="0" /><path
         id="path4748"
         d="m 910.976,659.196 18.29,-18.375 0,-81.33 -18.29,18.375 0,81.33"
         style="fill:none;fill-opacity:0;stroke:#494936;stroke-width:0.02"
         inkscape:connector-curvature="0" /><path
         id="path4750"
         d="m 910.699,586.75 -50.097,0"
         style="fill:none;fill-opacity:0;stroke:#ecece7;stroke-width:2.24000001"
         inkscape:connector-curvature="0" /><path
         id="path4752"
         d="m 910.699,586.154 -50.097,0"
         style="fill:none;fill-opacity:0;stroke:#494936;stroke-width:2.24000001"
         inkscape:connector-curvature="0" /><path
         id="path4754"
         d="m 909.506,587.357 0.011,-0.01"
         style="fill:none;fill-opacity:0;stroke:#ecece7;stroke-width:3.05999994"
         inkscape:connector-curvature="0" /><path
         id="path4756"
         d="m 909.506,586.75 0.011,-0.011"
         style="fill:none;fill-opacity:0;stroke:#494936;stroke-width:3.05999994"
         inkscape:connector-curvature="0" /><path
         id="path4758"
         d="m 886.977,599.501 20.047,0 0,7.105 -20.047,0 0,-7.105 z"
         style="fill:#000000"
         inkscape:connector-curvature="0" /><path
         id="path4760"
         d="m 886.977,599.501 20.037,0 0,7.094 -20.037,0 0,-7.094"
         style="fill:none;fill-opacity:0;stroke:#ecece7;stroke-width:0.02"
         inkscape:connector-curvature="0" /><path
         id="path4762"
         d="m 887.254,606.308 0,-6.52 19.461,0"
         style="fill:none;fill-opacity:0;stroke:#494936;stroke-width:0.02"
         inkscape:connector-curvature="0" /></g><text
       id="text4764"
       y="532.20203"
       x="646.078"
       style="font-style:normal;font-weight:normal;font-size:12.80000019px;font-family:sans-serif;text-anchor:start;fill:#000000"
       font-size="12.8"><tspan
         id="tspan4766"
         y="532.20203"
         x="646.078" /></text>
<text
       id="text4768"
       y="544.45599"
       x="671.69202"
       style="font-style:normal;font-weight:normal;font-size:12.80000019px;font-family:sans-serif;text-anchor:start;fill:#000000"
       font-size="12.8"><tspan
         id="tspan4770"
         y="544.45599"
         x="671.69202">https://github.com/&lt;ID#1&gt;/git-lecture</tspan></text>
<g
       id="g4772"><rect
         id="rect4774"
         height="61.834999"
         width="113.893"
         y="563.94202"
         x="1046.4"
         style="fill:#cfa4a4" /><rect
         id="rect4776"
         height="61.834999"
         width="113.893"
         y="563.94202"
         x="1046.4"
         style="fill:none;fill-opacity:0;stroke:#000000;stroke-width:2" /></g><text
       id="text4778"
       y="604.53198"
       x="1067.77"
       style="font-style:normal;font-weight:normal;font-size:22.57780075px;font-family:sans-serif;text-anchor:start;fill:#ffffff"
       font-size="22.5778"><tspan
         id="tspan4780"
         y="604.53198"
         x="1067.77">Github</tspan></text>
<g
       id="g4782"><path
         id="path4784"
         d="m 1189.05,580.623 0,81.33 50.68,0 0,-81.33 -50.68,0 z"
         style="fill:#b7b79d"
         inkscape:connector-curvature="0" /><path
         id="path4786"
         d="m 1189.32,580.932 0,81.33 50.69,0 0,-81.33 -50.69,0 z"
         style="fill:#b7b79d"
         inkscape:connector-curvature="0" /><path
         id="path4788"
         d="m 1189.32,580.932 0,81.33 50.69,0 0,-81.33 -50.69,0"
         style="fill:none;fill-opacity:0;stroke:#494936;stroke-width:0.02"
         inkscape:connector-curvature="0" /><path
         id="path4790"
         d="m 1192.41,602.567 20.07,0 0,7.105 -20.07,0 0,-7.105 z"
         style="fill:#000000"
         inkscape:connector-curvature="0" /><path
         id="path4792"
         d="m 1192.41,602.567 20.06,0 0,7.094 -20.06,0 0,-7.094"
         style="fill:none;fill-opacity:0;stroke:#ecece7;stroke-width:0.02"
         inkscape:connector-curvature="0" /><path
         id="path4794"
         d="m 1192.71,609.374 0,-6.52 19.46,0"
         style="fill:none;fill-opacity:0;stroke:#494936;stroke-width:0.02"
         inkscape:connector-curvature="0" /><path
         id="path4796"
         d="m 1189.05,580.623 18.25,-18.343 50.71,0 -18.28,18.343 -50.68,0 z"
         style="fill:#c9c9b6"
         inkscape:connector-curvature="0" /><path
         id="path4798"
         d="m 1189.32,580.932 18.29,-18.375 50.69,0 -18.29,18.375 -50.69,0 z"
         style="fill:#c9c9b6"
         inkscape:connector-curvature="0" /><path
         id="path4800"
         d="m 1189.32,580.932 18.29,-18.375 50.69,0 -18.29,18.375 -50.69,0"
         style="fill:none;fill-opacity:0;stroke:#494936;stroke-width:0.02"
         inkscape:connector-curvature="0" /><path
         id="path4802"
         d="m 1239.73,661.953 18.28,-18.375 0,-81.298 -18.28,18.343 0,81.33 z"
         style="fill:#7a7a5a"
         inkscape:connector-curvature="0" /><path
         id="path4804"
         d="m 1240.01,662.262 18.29,-18.375 0,-81.33 -18.29,18.375 0,81.33 z"
         style="fill:#7a7a5a"
         inkscape:connector-curvature="0" /><path
         id="path4806"
         d="m 1240.01,662.262 18.29,-18.375 0,-81.33 -18.29,18.375 0,81.33"
         style="fill:none;fill-opacity:0;stroke:#494936;stroke-width:0.02"
         inkscape:connector-curvature="0" /><path
         id="path4808"
         d="m 1239.73,589.816 -50.1,0"
         style="fill:none;fill-opacity:0;stroke:#ecece7;stroke-width:2.24000001"
         inkscape:connector-curvature="0" /><path
         id="path4810"
         d="m 1239.73,589.22 -50.1,0"
         style="fill:none;fill-opacity:0;stroke:#494936;stroke-width:2.24000001"
         inkscape:connector-curvature="0" /><path
         id="path4812"
         d="m 1238.54,590.423 0.01,-0.01"
         style="fill:none;fill-opacity:0;stroke:#ecece7;stroke-width:3.05999994"
         inkscape:connector-curvature="0" /><path
         id="path4814"
         d="m 1238.54,589.816 0.01,-0.011"
         style="fill:none;fill-opacity:0;stroke:#494936;stroke-width:3.05999994"
         inkscape:connector-curvature="0" /><path
         id="path4816"
         d="m 1216.01,602.567 20.04,0 0,7.105 -20.04,0 0,-7.105 z"
         style="fill:#000000"
         inkscape:connector-curvature="0" /><path
         id="path4818"
         d="m 1216.01,602.567 20.03,0 0,7.094 -20.03,0 0,-7.094"
         style="fill:none;fill-opacity:0;stroke:#ecece7;stroke-width:0.02"
         inkscape:connector-curvature="0" /><path
         id="path4820"
         d="m 1216.28,609.374 0,-6.52 19.47,0"
         style="fill:none;fill-opacity:0;stroke:#494936;stroke-width:0.02"
         inkscape:connector-curvature="0" /></g><text
       id="text4822"
       y="535.26801"
       x="975.10797"
       style="font-style:normal;font-weight:normal;font-size:12.80000019px;font-family:sans-serif;text-anchor:start;fill:#000000"
       font-size="12.8"><tspan
         id="tspan4824"
         y="535.26801"
         x="975.10797" /></text>
<text
       id="text4826"
       y="547.52197"
       x="1000.72"
       style="font-style:normal;font-weight:normal;font-size:12.80000019px;font-family:sans-serif;text-anchor:start;fill:#000000"
       font-size="12.8"><tspan
         id="tspan4828"
         y="547.52197"
         x="1000.72">https://github.com/&lt;ID#2&gt;/git-lecture</tspan></text>
<g
       id="g4830"><rect
         id="rect4832"
         height="61.834999"
         width="113.893"
         y="569.32202"
         x="1361.9301"
         style="fill:#cfa4a4" /><rect
         id="rect4834"
         height="61.834999"
         width="113.893"
         y="569.32202"
         x="1361.9301"
         style="fill:none;fill-opacity:0;stroke:#000000;stroke-width:2" /></g><text
       id="text4836"
       y="609.91199"
       x="1383.3"
       style="font-style:normal;font-weight:normal;font-size:22.57780075px;font-family:sans-serif;text-anchor:start;fill:#ffffff"
       font-size="22.5778"><tspan
         id="tspan4838"
         y="609.91199"
         x="1383.3">Github</tspan></text>
<g
       id="g4840"><path
         id="path4842"
         d="m 1504.58,586.001 0,81.33 50.69,0 0,-81.33 -50.69,0 z"
         style="fill:#b7b79d"
         inkscape:connector-curvature="0" /><path
         id="path4844"
         d="m 1504.86,586.31 0,81.33 50.68,0 0,-81.33 -50.68,0 z"
         style="fill:#b7b79d"
         inkscape:connector-curvature="0" /><path
         id="path4846"
         d="m 1504.86,586.31 0,81.33 50.68,0 0,-81.33 -50.68,0"
         style="fill:none;fill-opacity:0;stroke:#494936;stroke-width:0.02"
         inkscape:connector-curvature="0" /><path
         id="path4848"
         d="m 1507.95,607.945 20.07,0 0,7.105 -20.07,0 0,-7.105 z"
         style="fill:#000000"
         inkscape:connector-curvature="0" /><path
         id="path4850"
         d="m 1507.95,607.945 20.06,0 0,7.094 -20.06,0 0,-7.094"
         style="fill:none;fill-opacity:0;stroke:#ecece7;stroke-width:0.02"
         inkscape:connector-curvature="0" /><path
         id="path4852"
         d="m 1508.25,614.752 0,-6.52 19.46,0"
         style="fill:none;fill-opacity:0;stroke:#494936;stroke-width:0.02"
         inkscape:connector-curvature="0" /><path
         id="path4854"
         d="m 1504.58,586.001 18.26,-18.343 50.7,0 -18.27,18.343 -50.69,0 z"
         style="fill:#c9c9b6"
         inkscape:connector-curvature="0" /><path
         id="path4856"
         d="m 1504.86,586.31 18.29,-18.375 50.68,0 -18.29,18.375 -50.68,0 z"
         style="fill:#c9c9b6"
         inkscape:connector-curvature="0" /><path
         id="path4858"
         d="m 1504.86,586.31 18.29,-18.375 50.68,0 -18.29,18.375 -50.68,0"
         style="fill:none;fill-opacity:0;stroke:#494936;stroke-width:0.02"
         inkscape:connector-curvature="0" /><path
         id="path4860"
         d="m 1555.27,667.331 18.27,-18.375 0,-81.298 -18.27,18.343 0,81.33 z"
         style="fill:#7a7a5a"
         inkscape:connector-curvature="0" /><path
         id="path4862"
         d="m 1555.54,667.64 18.29,-18.375 0,-81.33 -18.29,18.375 0,81.33 z"
         style="fill:#7a7a5a"
         inkscape:connector-curvature="0" /><path
         id="path4864"
         d="m 1555.54,667.64 18.29,-18.375 0,-81.33 -18.29,18.375 0,81.33"
         style="fill:none;fill-opacity:0;stroke:#494936;stroke-width:0.02"
         inkscape:connector-curvature="0" /><path
         id="path4866"
         d="m 1555.27,595.194 -50.1,0"
         style="fill:none;fill-opacity:0;stroke:#ecece7;stroke-width:2.24000001"
         inkscape:connector-curvature="0" /><path
         id="path4868"
         d="m 1555.27,594.598 -50.1,0"
         style="fill:none;fill-opacity:0;stroke:#494936;stroke-width:2.24000001"
         inkscape:connector-curvature="0" /><path
         id="path4870"
         d="m 1554.07,595.801 0.01,-0.01"
         style="fill:none;fill-opacity:0;stroke:#ecece7;stroke-width:3.05999994"
         inkscape:connector-curvature="0" /><path
         id="path4872"
         d="m 1554.07,595.194 0.01,-0.011"
         style="fill:none;fill-opacity:0;stroke:#494936;stroke-width:3.05999994"
         inkscape:connector-curvature="0" /><path
         id="path4874"
         d="m 1531.54,607.945 20.05,0 0,7.105 -20.05,0 0,-7.105 z"
         style="fill:#000000"
         inkscape:connector-curvature="0" /><path
         id="path4876"
         d="m 1531.54,607.945 20.04,0 0,7.094 -20.04,0 0,-7.094"
         style="fill:none;fill-opacity:0;stroke:#ecece7;stroke-width:0.02"
         inkscape:connector-curvature="0" /><path
         id="path4878"
         d="m 1531.82,614.752 0,-6.52 19.46,0"
         style="fill:none;fill-opacity:0;stroke:#494936;stroke-width:0.02"
         inkscape:connector-curvature="0" /></g><text
       id="text4880"
       y="540.646"
       x="1290.64"
       style="font-style:normal;font-weight:normal;font-size:12.80000019px;font-family:sans-serif;text-anchor:start;fill:#000000"
       font-size="12.8"><tspan
         id="tspan4882"
         y="540.646"
         x="1290.64" /></text>
<text
       id="text4884"
       y="552.90002"
       x="1316.26"
       style="font-style:normal;font-weight:normal;font-size:12.80000019px;font-family:sans-serif;text-anchor:start;fill:#000000"
       font-size="12.8"><tspan
         id="tspan4886"
         y="552.90002"
         x="1316.26">https://github.com/&lt;ID#3&gt;/git-lecture</tspan></text>
<g
       id="g4888"><rect
         id="rect4890"
         height="61.834999"
         width="113.893"
         y="566.31799"
         x="1659.47"
         style="fill:#cfa4a4" /><rect
         id="rect4892"
         height="61.834999"
         width="113.893"
         y="566.31799"
         x="1659.47"
         style="fill:none;fill-opacity:0;stroke:#000000;stroke-width:2" /></g><text
       id="text4894"
       y="606.90802"
       x="1680.84"
       style="font-style:normal;font-weight:normal;font-size:22.57780075px;font-family:sans-serif;text-anchor:start;fill:#ffffff"
       font-size="22.5778"><tspan
         id="tspan4896"
         y="606.90802"
         x="1680.84">Github</tspan></text>
<g
       id="g4898"><path
         id="path4900"
         d="m 1802.12,582.999 0,81.33 50.68,0 0,-81.33 -50.68,0 z"
         style="fill:#b7b79d"
         inkscape:connector-curvature="0" /><path
         id="path4902"
         d="m 1802.4,583.308 0,81.33 50.68,0 0,-81.33 -50.68,0 z"
         style="fill:#b7b79d"
         inkscape:connector-curvature="0" /><path
         id="path4904"
         d="m 1802.4,583.308 0,81.33 50.68,0 0,-81.33 -50.68,0"
         style="fill:none;fill-opacity:0;stroke:#494936;stroke-width:0.02"
         inkscape:connector-curvature="0" /><path
         id="path4906"
         d="m 1805.49,604.943 20.06,0 0,7.105 -20.06,0 0,-7.105 z"
         style="fill:#000000"
         inkscape:connector-curvature="0" /><path
         id="path4908"
         d="m 1805.49,604.943 20.05,0 0,7.094 -20.05,0 0,-7.094"
         style="fill:none;fill-opacity:0;stroke:#ecece7;stroke-width:0.02"
         inkscape:connector-curvature="0" /><path
         id="path4910"
         d="m 1805.78,611.75 0,-6.52 19.47,0"
         style="fill:none;fill-opacity:0;stroke:#494936;stroke-width:0.02"
         inkscape:connector-curvature="0" /><path
         id="path4912"
         d="m 1802.12,582.999 18.26,-18.343 50.7,0 -18.28,18.343 -50.68,0 z"
         style="fill:#c9c9b6"
         inkscape:connector-curvature="0" /><path
         id="path4914"
         d="m 1802.4,583.308 18.29,-18.375 50.68,0 -18.29,18.375 -50.68,0 z"
         style="fill:#c9c9b6"
         inkscape:connector-curvature="0" /><path
         id="path4916"
         d="m 1802.4,583.308 18.29,-18.375 50.68,0 -18.29,18.375 -50.68,0"
         style="fill:none;fill-opacity:0;stroke:#494936;stroke-width:0.02"
         inkscape:connector-curvature="0" /><path
         id="path4918"
         d="m 1852.8,664.329 18.28,-18.375 0,-81.298 -18.28,18.343 0,81.33 z"
         style="fill:#7a7a5a"
         inkscape:connector-curvature="0" /><path
         id="path4920"
         d="m 1853.08,664.638 18.29,-18.375 0,-81.33 -18.29,18.375 0,81.33 z"
         style="fill:#7a7a5a"
         inkscape:connector-curvature="0" /><path
         id="path4922"
         d="m 1853.08,664.638 18.29,-18.375 0,-81.33 -18.29,18.375 0,81.33"
         style="fill:none;fill-opacity:0;stroke:#494936;stroke-width:0.02"
         inkscape:connector-curvature="0" /><path
         id="path4924"
         d="m 1852.8,592.192 -50.09,0"
         style="fill:none;fill-opacity:0;stroke:#ecece7;stroke-width:2.24000001"
         inkscape:connector-curvature="0" /><path
         id="path4926"
         d="m 1852.8,591.596 -50.09,0"
         style="fill:none;fill-opacity:0;stroke:#494936;stroke-width:2.24000001"
         inkscape:connector-curvature="0" /><path
         id="path4928"
         d="m 1851.61,592.799 0.01,-0.01"
         style="fill:none;fill-opacity:0;stroke:#ecece7;stroke-width:3.05999994"
         inkscape:connector-curvature="0" /><path
         id="path4930"
         d="m 1851.61,592.192 0.01,-0.011"
         style="fill:none;fill-opacity:0;stroke:#494936;stroke-width:3.05999994"
         inkscape:connector-curvature="0" /><path
         id="path4932"
         d="m 1829.08,604.943 20.05,0 0,7.105 -20.05,0 0,-7.105 z"
         style="fill:#000000"
         inkscape:connector-curvature="0" /><path
         id="path4934"
         d="m 1829.08,604.943 20.04,0 0,7.094 -20.04,0 0,-7.094"
         style="fill:none;fill-opacity:0;stroke:#ecece7;stroke-width:0.02"
         inkscape:connector-curvature="0" /><path
         id="path4936"
         d="m 1829.36,611.75 0,-6.52 19.46,0"
         style="fill:none;fill-opacity:0;stroke:#494936;stroke-width:0.02"
         inkscape:connector-curvature="0" /></g><text
       id="text4938"
       y="549.89801"
       x="1613.8"
       style="font-style:normal;font-weight:normal;font-size:12.80000019px;font-family:sans-serif;text-anchor:start;fill:#000000"
       font-size="12.8"><tspan
         id="tspan4940"
         y="549.89801"
         x="1613.8">https://github.com/&lt;ID#4&gt;/git-lecture</tspan></text>
<g
       id="g4942"><path
         id="path4944"
         d="m 1014.91,373.134 c -59.03,0 -118.766,112.974 -168.054,112.974"
         style="fill:none;fill-opacity:0;stroke:#000000;stroke-width:2"
         inkscape:connector-curvature="0" /><polygon
         id="polygon4946"
         points="849.356,481.108 846.856,486.108 849.356,491.108 839.356,486.108 "
         style="fill:#000000" /><polygon
         id="polygon4948"
         points="849.356,481.108 846.856,486.108 849.356,491.108 839.356,486.108 "
         style="fill:none;fill-opacity:0;stroke:#000000;stroke-width:2" /></g><g
       id="g4950"><path
         id="path4952"
         d="m 1117.77,428.432 c -58.77,6.928 42.35,89.658 42.09,88.702"
         style="fill:none;fill-opacity:0;stroke:#000000;stroke-width:2"
         inkscape:connector-curvature="0" /><polygon
         id="polygon4954"
         points="1154.39,516.006 1159.86,517.134 1164.05,513.431 1161.79,524.381 "
         style="fill:#000000" /><polygon
         id="polygon4956"
         points="1154.39,516.006 1159.86,517.134 1164.05,513.431 1161.79,524.381 "
         style="fill:none;fill-opacity:0;stroke:#000000;stroke-width:2" /></g><g
       id="g4958"><path
         id="path4960"
         d="m 1266.42,367.188 c 76.79,0 213.66,112.366 227.5,145.037"
         style="fill:none;fill-opacity:0;stroke:#000000;stroke-width:2"
         inkscape:connector-curvature="0" /><polygon
         id="polygon4962"
         points="1488.34,511.874 1493.92,512.225 1497.55,507.973 1496.85,519.131 "
         style="fill:#000000" /><polygon
         id="polygon4964"
         points="1488.34,511.874 1493.92,512.225 1497.55,507.973 1496.85,519.131 "
         style="fill:none;fill-opacity:0;stroke:#000000;stroke-width:2" /></g><g
       id="g4966"><path
         id="path4968"
         d="m 1283.07,358.27 c 151.22,0 431.06,81.686 452.57,150.653"
         style="fill:none;fill-opacity:0;stroke:#000000;stroke-width:2"
         inkscape:connector-curvature="0" /><polygon
         id="polygon4970"
         points="1730.12,508.025 1735.64,508.923 1739.67,505.048 1737.87,516.083 "
         style="fill:#000000" /><polygon
         id="polygon4972"
         points="1730.12,508.025 1735.64,508.923 1739.67,505.048 1737.87,516.083 "
         style="fill:none;fill-opacity:0;stroke:#000000;stroke-width:2" /></g><text
       id="text4974"
       y="422.23001"
       x="891.052"
       style="font-style:normal;font-weight:normal;font-size:12.80000019px;font-family:sans-serif;text-anchor:start;fill:#000000"
       font-size="12.8"><tspan
         id="tspan4976"
         y="422.23001"
         x="891.052">fork</tspan></text>
<text
       id="text4978"
       y="467.45801"
       x="1072.84"
       style="font-style:normal;font-weight:normal;font-size:12.80000019px;font-family:sans-serif;text-anchor:start;fill:#000000"
       font-size="12.8"><tspan
         id="tspan4980"
         y="467.45801"
         x="1072.84">fork</tspan></text>
<text
       id="text4982"
       y="441.80399"
       x="1375.13"
       style="font-style:normal;font-weight:normal;font-size:12.80000019px;font-family:sans-serif;text-anchor:start;fill:#000000"
       font-size="12.8"><tspan
         id="tspan4984"
         y="441.80399"
         x="1375.13">fork</tspan></text>
<text
       id="text4986"
       y="406.88199"
       x="1586.9"
       style="font-style:normal;font-weight:normal;font-size:12.80000019px;font-family:sans-serif;text-anchor:start;fill:#000000"
       font-size="12.8"><tspan
         id="tspan4988"
         y="406.88199"
         x="1586.9">fork</tspan></text>
</g></svg>